<?xml version="1.0" encoding="UTF-8" standalone="no"?>
<!-- Created with Inkscape (http://www.inkscape.org/) -->

<svg
   xmlns:dc="http://purl.org/dc/elements/1.1/"
   xmlns:cc="http://creativecommons.org/ns#"
   xmlns:rdf="http://www.w3.org/1999/02/22-rdf-syntax-ns#"
   xmlns:svg="http://www.w3.org/2000/svg"
   xmlns="http://www.w3.org/2000/svg"
   xmlns:sodipodi="http://sodipodi.sourceforge.net/DTD/sodipodi-0.dtd"
   xmlns:inkscape="http://www.inkscape.org/namespaces/inkscape"
   width="64"
   height="64"
   viewBox="0 0 64 64"
   id="svg4877"
   version="1.1"
   inkscape:version="0.91 r13725"
   sodipodi:docname="link.svg">
  <defs
     id="defs4879" />
  <sodipodi:namedview
     id="base"
     pagecolor="#ffffff"
     bordercolor="#666666"
     borderopacity="1.0"
     inkscape:pageopacity="0"
     inkscape:pageshadow="2"
     inkscape:zoom="3.9999998"
     inkscape:cx="26.804399"
     inkscape:cy="0.41773168"
     inkscape:document-units="px"
     inkscape:current-layer="layer1"
     showgrid="true"
     units="px"
     inkscape:window-width="1920"
     inkscape:window-height="1181"
     inkscape:window-x="0"
     inkscape:window-y="19"
     inkscape:window-maximized="0"
     inkscape:snap-bbox="true"
     inkscape:snap-page="true"
     inkscape:bbox-nodes="true"
     inkscape:object-nodes="true"
     inkscape:snap-smooth-nodes="true"
     inkscape:snap-global="true">
    <inkscape:grid
       type="xygrid"
       id="grid4885"
       spacingx="0.99999998"
       spacingy="0.99999998"
       empspacing="8" />
  </sodipodi:namedview>
  <metadata
     id="metadata4882">
    <rdf:RDF>
      <cc:Work
         rdf:about="">
        <dc:format>image/svg+xml</dc:format>
        <dc:type
           rdf:resource="http://purl.org/dc/dcmitype/StillImage" />
        <dc:title />
      </cc:Work>
    </rdf:RDF>
  </metadata>
  <g
     inkscape:label="Layer 1"
     inkscape:groupmode="layer"
     id="layer1"
     transform="translate(0,-988.3622)">
    <path
       style="opacity:1;fill:#784421;fill-opacity:1;stroke:none;stroke-width:3;stroke-linecap:square;stroke-linejoin:miter;stroke-miterlimit:4;stroke-dasharray:none;stroke-opacity:0.50196078"
       d="m 65.999998,1019.3622 16,-16 0,8 15.999999,0 0,16 -15.999999,0 0,8 z"
       id="path6059"
       inkscape:connector-curvature="0"
       sodipodi:nodetypes="cccccccc" />
    <path
       style="opacity:1;fill:#784421;fill-opacity:1;stroke:none;stroke-width:4;stroke-linecap:round;stroke-linejoin:round;stroke-miterlimit:4;stroke-dasharray:none;stroke-opacity:1"
       d="m 16,1012.3622 a 8,8 0 0 0 -8.0000002,8 8,8 0 0 0 8.0000002,8 l 4,0 0,-4 -4,0 a 4.0000005,4.0000005 0 0 1 -4,-4 4.0000005,4.0000005 0 0 1 4,-4 l 4,0 0,-4 -4,0 z"
       id="circle16072"
       inkscape:connector-curvature="0" />
    <path
       id="path16116"
       d="m 22,1012.3622 a 8,8 0 0 1 8,8 8,8 0 0 1 -8,8 l -4,0 0,-4 4,0 a 4.0000005,4.0000005 0 0 0 4,-4 4.0000005,4.0000005 0 0 0 -4,-4 l -4,0 0,-4 4,0 z"
       style="opacity:1;fill:#784421;fill-opacity:1;stroke:none;stroke-width:4;stroke-linecap:round;stroke-linejoin:round;stroke-miterlimit:4;stroke-dasharray:none;stroke-opacity:1"
       inkscape:connector-curvature="0" />
    <path
       inkscape:connector-curvature="0"
       id="path16118"
       d="m 41.999999,1012.3622 a 8,8 0 0 0 -8,8 8,8 0 0 0 8,8 l 4,0 0,-4 -4,0 a 4.0000005,4.0000005 0 0 1 -4,-4 4.0000005,4.0000005 0 0 1 4,-4 l 4,0 0,-4 -4,0 z"
       style="opacity:1;fill:#784421;fill-opacity:1;stroke:none;stroke-width:4;stroke-linecap:round;stroke-linejoin:round;stroke-miterlimit:4;stroke-dasharray:none;stroke-opacity:1" />
    <path
       inkscape:connector-curvature="0"
       style="opacity:1;fill:#784421;fill-opacity:1;stroke:none;stroke-width:4;stroke-linecap:round;stroke-linejoin:round;stroke-miterlimit:4;stroke-dasharray:none;stroke-opacity:1"
       d="m 47.999999,1012.3622 a 8,8 0 0 1 8,8 8,8 0 0 1 -8,8 l -4,0 0,-4 4,0 a 4.0000005,4.0000005 0 0 0 4,-4 4.0000005,4.0000005 0 0 0 -4,-4 l -4,0 0,-4 4,0 z"
       id="path16120" />
    <circle
       style="opacity:1;fill:#784421;fill-opacity:1;stroke:none;stroke-width:4;stroke-linecap:round;stroke-linejoin:round;stroke-miterlimit:4;stroke-dasharray:none;stroke-opacity:1"
       id="path16122"
       cx="23"
       cy="1020.3622"
       r="2" />
    <circle
       r="2"
       cy="1020.3622"
       cx="41"
       id="circle16124"
       style="opacity:1;fill:#784421;fill-opacity:1;stroke:none;stroke-width:4;stroke-linecap:round;stroke-linejoin:round;stroke-miterlimit:4;stroke-dasharray:none;stroke-opacity:1" />
    <rect
       style="opacity:1;fill:#784421;fill-opacity:1;stroke:none;stroke-width:4;stroke-linecap:round;stroke-linejoin:round;stroke-miterlimit:4;stroke-dasharray:none;stroke-opacity:1"
       id="rect16126"
       width="18"
       height="4"
       x="23"
       y="1018.3622"
       ry="8.6913997e-06" />
    <path
       style="opacity:1;fill:#784421;fill-opacity:1;stroke:none;stroke-width:4;stroke-linecap:round;stroke-linejoin:round;stroke-miterlimit:4;stroke-dasharray:none;stroke-opacity:1"
       d="m 85.999998,1041.3622 a 8,8 0 0 0 -8,8 8,8 0 0 0 8,8 l 4,0 0,-4 -4,0 a 4.0000005,4.0000005 0 0 1 -4,-4 4.0000005,4.0000005 0 0 1 4,-4 l 4,0 0,-4 -4,0 z"
       id="path16128"
       inkscape:connector-curvature="0" />
    <path
       id="path16130"
       d="m 91.999998,1041.3622 a 8,8 0 0 1 8,8 8,8 0 0 1 -8,8 l -4,0 0,-4 4,0 a 4.0000005,4.0000005 0 0 0 4,-4 4.0000005,4.0000005 0 0 0 -4,-4 l -4,0 0,-4 4,0 z"
       style="opacity:1;fill:#784421;fill-opacity:1;stroke:none;stroke-width:4;stroke-linecap:round;stroke-linejoin:round;stroke-miterlimit:4;stroke-dasharray:none;stroke-opacity:1"
       inkscape:connector-curvature="0" />
  </g>
</svg>
