<?xml version="1.0" encoding="UTF-8" standalone="no"?>
<!-- Created with Inkscape (http://www.inkscape.org/) -->

<svg
   xmlns:dc="http://purl.org/dc/elements/1.1/"
   xmlns:cc="http://creativecommons.org/ns#"
   xmlns:rdf="http://www.w3.org/1999/02/22-rdf-syntax-ns#"
   xmlns:svg="http://www.w3.org/2000/svg"
   xmlns="http://www.w3.org/2000/svg"
   xmlns:sodipodi="http://sodipodi.sourceforge.net/DTD/sodipodi-0.dtd"
   xmlns:inkscape="http://www.inkscape.org/namespaces/inkscape"
   width="256"
   height="384"
   viewBox="0 0 256 383.99999"
   id="svg4877"
   version="1.1"
   inkscape:version="0.91 r13725"
   sodipodi:docname="needle.svg">
  <defs
     id="defs4879">
    <filter
       inkscape:collect="always"
       style="color-interpolation-filters:sRGB"
       id="filter7438"
       x="-0.12327051"
       width="1.246541"
       y="-0.050850377"
       height="1.1017008">
      <feGaussianBlur
         inkscape:collect="always"
         stdDeviation="2.4654102"
         id="feGaussianBlur7440" />
    </filter>
    <clipPath
       clipPathUnits="userSpaceOnUse"
       id="clipPath7446">
      <path
         sodipodi:nodetypes="csssc"
         inkscape:connector-curvature="0"
         id="path7448"
         d="m 128,1052.3622 c -8,-40 -24,-59.6913 -24,-80 0,-16 8,-32 24,-32 16,0 24,16 24,32 0,20.3087 -16,40 -24,80 z"
         style="opacity:1;fill:#483e37;fill-opacity:1;stroke:none;stroke-width:3;stroke-linecap:square;stroke-linejoin:miter;stroke-miterlimit:4;stroke-dasharray:none;stroke-opacity:0.50196078" />
    </clipPath>
  </defs>
  <sodipodi:namedview
     id="base"
     pagecolor="#ffffff"
     bordercolor="#666666"
     borderopacity="1.0"
     inkscape:pageopacity="0.0"
     inkscape:pageshadow="2"
     inkscape:zoom="1"
     inkscape:cx="124.74491"
     inkscape:cy="111.68394"
     inkscape:document-units="px"
     inkscape:current-layer="layer1"
     showgrid="true"
     units="px"
     inkscape:window-width="1920"
     inkscape:window-height="1181"
     inkscape:window-x="0"
     inkscape:window-y="19"
     inkscape:window-maximized="0"
     inkscape:object-nodes="true"
     inkscape:snap-smooth-nodes="true"
     inkscape:snap-page="true"
     inkscape:snap-bbox="true"
     inkscape:bbox-paths="true"
     inkscape:bbox-nodes="true"
     inkscape:snap-center="true">
    <inkscape:grid
       type="xygrid"
       id="grid4885"
       spacingx="16"
       spacingy="16"
       empspacing="8"
       originy="1.9999999" />
    <inkscape:grid
       type="xygrid"
       id="grid5985"
       empspacing="8"
       color="#ff0000"
       opacity="0.1254902"
       empcolor="#ff3f3f"
       empopacity="0.25098039"
       dotted="true"
       originy="1.9999999" />
  </sodipodi:namedview>
  <metadata
     id="metadata4882">
    <rdf:RDF>
      <cc:Work
         rdf:about="">
        <dc:format>image/svg+xml</dc:format>
        <dc:type
           rdf:resource="http://purl.org/dc/dcmitype/StillImage" />
        <dc:title></dc:title>
      </cc:Work>
    </rdf:RDF>
  </metadata>
  <g
     inkscape:label="Layer 1"
     inkscape:groupmode="layer"
     id="layer1"
     transform="translate(0,-668.3622)">
    <path
       style="opacity:1;fill:#483e37;fill-opacity:1;stroke:none;stroke-width:3;stroke-linecap:square;stroke-linejoin:miter;stroke-miterlimit:4;stroke-dasharray:none;stroke-opacity:0.50196078"
       d="m 128,1050.3622 c -8,-40 -24,-59.6913 -24,-80 0,-16 8,-32 24,-32 16,0 24,16 24,32 0,20.3087 -16,40 -24,80 z"
       id="path7393"
       inkscape:connector-curvature="0"
       sodipodi:nodetypes="csssc" />
    <path
       sodipodi:nodetypes="cscsc"
       inkscape:connector-curvature="0"
       id="path7402"
       d="m 128,1052.3622 c 0,-40 16,-59.6913 16,-80 0,-16 -6.15558,-26.4244 -16,-32 24,-16 48,16 48,32 0,20.3087 -24,48 -48,80 z"
       style="opacity:1;fill:#000000;fill-opacity:1;stroke:none;stroke-width:3;stroke-linecap:square;stroke-linejoin:miter;stroke-miterlimit:4;stroke-dasharray:none;stroke-opacity:0.50196078;filter:url(#filter7438)"
       clip-path="url(#clipPath7446)"
       transform="translate(0,-2)" />
    <rect
       style="opacity:1;fill:#e3dedb;fill-opacity:1;stroke:none;stroke-width:3;stroke-linecap:square;stroke-linejoin:miter;stroke-miterlimit:4;stroke-dasharray:none;stroke-opacity:0.50196078"
       id="rect7395"
       width="32"
       height="31.999983"
       x="112"
       y="914.36218"
       ry="2.0000174" />
    <path
       style="opacity:1;fill:#6c5d53;fill-opacity:1;stroke:none;stroke-width:3;stroke-linecap:square;stroke-linejoin:miter;stroke-miterlimit:4;stroke-dasharray:none;stroke-opacity:0.50196078"
       d="m 114.00012,666.36218 27.99976,0 c 7e-5,0 -5.99988,-5e-5 -5.99988,1e-5 l 6,248.00001 c 0,7e-5 -5e-5,1.2e-4 -1.2e-4,1.2e-4 l -27.99976,0 c -7e-5,0 -1.2e-4,-5e-5 -1.2e-4,-1.2e-4 l 5,-248 c 0,-6e-5 -4.99995,-2e-5 -4.99988,-2e-5 z"
       id="rect7397"
       inkscape:connector-curvature="0"
       sodipodi:nodetypes="sssssssss" />
    <path
       style="opacity:1;fill:none;fill-opacity:1;stroke:#ffffff;stroke-width:3;stroke-linecap:round;stroke-linejoin:round;stroke-miterlimit:4;stroke-dasharray:none;stroke-opacity:1"
       d="m 118,917.3622 0,26"
       id="path7400"
       inkscape:connector-curvature="0" />
    <path
       style="opacity:0.5;fill:#000000;fill-opacity:1;stroke:none;stroke-width:3;stroke-linecap:round;stroke-linejoin:round;stroke-miterlimit:4;stroke-dasharray:none;stroke-opacity:1"
       d="m 132,666.3622 4,0 6,248 -7,0 z"
       id="path8109"
       inkscape:connector-curvature="0"
       sodipodi:nodetypes="ccccc" />
    <path
       style="opacity:0.25;fill:#000000;fill-opacity:1;stroke:none;stroke-width:3;stroke-linecap:square;stroke-linejoin:miter;stroke-miterlimit:4;stroke-dasharray:none;stroke-opacity:0.50196078"
       d="M 136 246 C 137.10801 246 138 246.89199 138 248 L 138 276 C 138 277.10801 137.10801 278 136 278 L 142 278 C 143.10801 278 144 277.10801 144 276 L 144 248 C 144 246.89199 143.10801 246 142 246 L 136 246 z "
       transform="translate(0,668.3622)"
       id="rect8111" />
    <path
       inkscape:connector-curvature="0"
       id="path8116"
       d="m 132,917.3622 0,26"
       style="opacity:1;fill:none;fill-opacity:1;stroke:#ffffff;stroke-width:3;stroke-linecap:round;stroke-linejoin:round;stroke-miterlimit:4;stroke-dasharray:none;stroke-opacity:1" />
    <path
       inkscape:connector-curvature="0"
       id="path8118"
       d="m 114,917.3622 0,26"
       style="opacity:1;fill:none;fill-opacity:1;stroke:#ffffff;stroke-width:2;stroke-linecap:round;stroke-linejoin:round;stroke-miterlimit:4;stroke-dasharray:none;stroke-opacity:1"
       sodipodi:nodetypes="cc" />
  </g>
</svg>
