<?xml version="1.0" encoding="UTF-8" standalone="no"?>
<!-- Created with Inkscape (http://www.inkscape.org/) -->

<svg
   xmlns:dc="http://purl.org/dc/elements/1.1/"
   xmlns:cc="http://creativecommons.org/ns#"
   xmlns:rdf="http://www.w3.org/1999/02/22-rdf-syntax-ns#"
   xmlns:svg="http://www.w3.org/2000/svg"
   xmlns="http://www.w3.org/2000/svg"
   xmlns:sodipodi="http://sodipodi.sourceforge.net/DTD/sodipodi-0.dtd"
   xmlns:inkscape="http://www.inkscape.org/namespaces/inkscape"
   width="25"
   height="25"
   viewBox="0 0 25 25"
   id="svg4877"
   version="1.1"
   inkscape:version="0.91 r13725"
   sodipodi:docname="pattern_square_outline.svg">
  <defs
     id="defs4879">
    <clipPath
       clipPathUnits="userSpaceOnUse"
       id="clipPath8159">
      <path
         style="color:#000000;font-style:normal;font-variant:normal;font-weight:normal;font-stretch:normal;font-size:medium;line-height:normal;font-family:sans-serif;text-indent:0;text-align:start;text-decoration:none;text-decoration-line:none;text-decoration-style:solid;text-decoration-color:#000000;letter-spacing:normal;word-spacing:normal;text-transform:none;direction:ltr;block-progression:tb;writing-mode:lr-tb;baseline-shift:baseline;text-anchor:start;white-space:normal;clip-rule:nonzero;display:inline;overflow:visible;visibility:visible;opacity:1;isolation:auto;mix-blend-mode:normal;color-interpolation:sRGB;color-interpolation-filters:linearRGB;solid-color:#000000;solid-opacity:1;fill:#ff0000;fill-opacity:1;fill-rule:nonzero;stroke:none;stroke-width:8;stroke-linecap:round;stroke-linejoin:round;stroke-miterlimit:4;stroke-dasharray:none;stroke-dashoffset:0;stroke-opacity:1;color-rendering:auto;image-rendering:auto;shape-rendering:auto;text-rendering:auto;enable-background:accumulate"
         d="m 3.8554688,1028.3164 a 4.0004,4.0004 0 0 0 -3.12695318,6.3477 c 2.18769138,3.1109 5.40035988,5.8736 8.52734378,8.6601 3.1269836,2.7865 6.1693646,5.5761 7.5273436,7.4141 a 4.0004,4.0004 0 1 0 6.433594,-4.7539 c -2.267021,-3.0683 -5.521515,-5.8568 -8.636719,-8.6328 -3.115204,-2.776 -6.090035,-5.5582 -7.3085936,-7.2911 a 4.0004,4.0004 0 0 0 -3.4160156,-1.7441 z"
         id="path8161"
         inkscape:connector-curvature="0" />
    </clipPath>
    <clipPath
       clipPathUnits="userSpaceOnUse"
       id="clipPath8190">
      <path
         inkscape:connector-curvature="0"
         id="path8192"
         d="m 24.057249,1032.2182 a 4.0004,4.0004 0 0 0 -6.3477,-3.127 c -3.1109,2.1877 -5.8736,5.4004 -8.6600996,8.5274 -2.7865,3.127 -5.5761,6.1694 -7.4141,7.5273 a 4.0004,4.0004 0 1 0 4.7539,6.4336 c 3.0683,-2.267 5.8567996,-5.5215 8.6327996,-8.6367 2.776,-3.1152 5.5582,-6.09 7.2911,-7.3086 a 4.0004,4.0004 0 0 0 1.7441,-3.416 z"
         style="color:#000000;font-style:normal;font-variant:normal;font-weight:normal;font-stretch:normal;font-size:medium;line-height:normal;font-family:sans-serif;text-indent:0;text-align:start;text-decoration:none;text-decoration-line:none;text-decoration-style:solid;text-decoration-color:#000000;letter-spacing:normal;word-spacing:normal;text-transform:none;direction:ltr;block-progression:tb;writing-mode:lr-tb;baseline-shift:baseline;text-anchor:start;white-space:normal;clip-rule:nonzero;display:inline;overflow:visible;visibility:visible;opacity:1;isolation:auto;mix-blend-mode:normal;color-interpolation:sRGB;color-interpolation-filters:linearRGB;solid-color:#000000;solid-opacity:1;fill:#ff0000;fill-opacity:1;fill-rule:nonzero;stroke:none;stroke-width:8;stroke-linecap:round;stroke-linejoin:round;stroke-miterlimit:4;stroke-dasharray:none;stroke-dashoffset:0;stroke-opacity:1;color-rendering:auto;image-rendering:auto;shape-rendering:auto;text-rendering:auto;enable-background:accumulate" />
    </clipPath>
  </defs>
  <sodipodi:namedview
     id="base"
     pagecolor="#ffffff"
     bordercolor="#666666"
     borderopacity="1.0"
     inkscape:pageopacity="0"
     inkscape:pageshadow="2"
     inkscape:zoom="32"
     inkscape:cx="6.5532431"
     inkscape:cy="14.98174"
     inkscape:document-units="px"
     inkscape:current-layer="layer1"
     showgrid="true"
     units="px"
     inkscape:window-width="1920"
     inkscape:window-height="1181"
     inkscape:window-x="0"
     inkscape:window-y="19"
     inkscape:window-maximized="0"
     inkscape:snap-bbox="true"
     inkscape:snap-page="true"
     inkscape:bbox-nodes="true"
     inkscape:object-nodes="true"
     inkscape:snap-smooth-nodes="true"
     inkscape:snap-global="true">
    <inkscape:grid
       type="xygrid"
       id="grid4885"
       spacingx="0.99999998"
       spacingy="0.99999998"
       empspacing="8" />
  </sodipodi:namedview>
  <metadata
     id="metadata4882">
    <rdf:RDF>
      <cc:Work
         rdf:about="">
        <dc:format>image/svg+xml</dc:format>
        <dc:type
           rdf:resource="http://purl.org/dc/dcmitype/StillImage" />
        <dc:title></dc:title>
      </cc:Work>
    </rdf:RDF>
  </metadata>
  <g
     inkscape:label="Layer 1"
     inkscape:groupmode="layer"
     id="layer1"
     transform="translate(0,-1027.3622)">
    <rect
       style="opacity:1;fill:#808080;fill-opacity:1;stroke:none;stroke-width:2;stroke-linecap:round;stroke-linejoin:round;stroke-miterlimit:4;stroke-dasharray:none;stroke-opacity:1"
       id="rect8289"
       width="1"
       height="1"
       x="0"
       y="1027.3622"
       ry="8.6913997e-06" />
    <rect
       ry="8.6913997e-06"
       y="1027.3622"
       x="1.9999999"
       height="1"
       width="1"
       id="rect8291"
       style="opacity:1;fill:#808080;fill-opacity:1;stroke:none;stroke-width:2;stroke-linecap:round;stroke-linejoin:round;stroke-miterlimit:4;stroke-dasharray:none;stroke-opacity:1" />
    <rect
       ry="8.6913997e-06"
       y="1027.3622"
       x="4"
       height="1"
       width="1"
       id="rect8293"
       style="opacity:1;fill:#808080;fill-opacity:1;stroke:none;stroke-width:2;stroke-linecap:round;stroke-linejoin:round;stroke-miterlimit:4;stroke-dasharray:none;stroke-opacity:1" />
    <rect
       style="opacity:1;fill:#808080;fill-opacity:1;stroke:none;stroke-width:2;stroke-linecap:round;stroke-linejoin:round;stroke-miterlimit:4;stroke-dasharray:none;stroke-opacity:1"
       id="rect8295"
       width="1"
       height="1"
       x="6"
       y="1027.3622"
       ry="8.6913997e-06" />
    <rect
       ry="8.6913997e-06"
       y="1027.3622"
       x="7.9999995"
       height="1"
       width="1"
       id="rect8297"
       style="opacity:1;fill:#808080;fill-opacity:1;stroke:none;stroke-width:2;stroke-linecap:round;stroke-linejoin:round;stroke-miterlimit:4;stroke-dasharray:none;stroke-opacity:1" />
    <rect
       style="opacity:1;fill:#808080;fill-opacity:1;stroke:none;stroke-width:2;stroke-linecap:round;stroke-linejoin:round;stroke-miterlimit:4;stroke-dasharray:none;stroke-opacity:1"
       id="rect8299"
       width="1"
       height="1"
       x="10"
       y="1027.3622"
       ry="8.6913997e-06" />
    <rect
       style="opacity:1;fill:#808080;fill-opacity:1;stroke:none;stroke-width:2;stroke-linecap:round;stroke-linejoin:round;stroke-miterlimit:4;stroke-dasharray:none;stroke-opacity:1"
       id="rect8301"
       width="1"
       height="1"
       x="12"
       y="1027.3622"
       ry="8.6913997e-06" />
    <rect
       ry="8.6913997e-06"
       y="1027.3622"
       x="14"
       height="1"
       width="1"
       id="rect8303"
       style="opacity:1;fill:#808080;fill-opacity:1;stroke:none;stroke-width:2;stroke-linecap:round;stroke-linejoin:round;stroke-miterlimit:4;stroke-dasharray:none;stroke-opacity:1" />
    <rect
       style="opacity:1;fill:#808080;fill-opacity:1;stroke:none;stroke-width:2;stroke-linecap:round;stroke-linejoin:round;stroke-miterlimit:4;stroke-dasharray:none;stroke-opacity:1"
       id="rect8305"
       width="1"
       height="1"
       x="15.999999"
       y="1027.3622"
       ry="8.6913997e-06" />
    <rect
       ry="8.6913997e-06"
       y="1027.3622"
       x="18"
       height="1"
       width="1"
       id="rect8307"
       style="opacity:1;fill:#808080;fill-opacity:1;stroke:none;stroke-width:2;stroke-linecap:round;stroke-linejoin:round;stroke-miterlimit:4;stroke-dasharray:none;stroke-opacity:1" />
    <rect
       ry="8.6913997e-06"
       y="1027.3622"
       x="20"
       height="1"
       width="1"
       id="rect8309"
       style="opacity:1;fill:#808080;fill-opacity:1;stroke:none;stroke-width:2;stroke-linecap:round;stroke-linejoin:round;stroke-miterlimit:4;stroke-dasharray:none;stroke-opacity:1" />
    <rect
       style="opacity:1;fill:#808080;fill-opacity:1;stroke:none;stroke-width:2;stroke-linecap:round;stroke-linejoin:round;stroke-miterlimit:4;stroke-dasharray:none;stroke-opacity:1"
       id="rect8311"
       width="1"
       height="1"
       x="22"
       y="1027.3622"
       ry="8.6913997e-06" />
    <rect
       ry="8.6913997e-06"
       y="1051.3622"
       x="-4.6e-07"
       height="1"
       width="1"
       id="rect8313"
       style="opacity:1;fill:#808080;fill-opacity:1;stroke:none;stroke-width:2;stroke-linecap:round;stroke-linejoin:round;stroke-miterlimit:4;stroke-dasharray:none;stroke-opacity:1" />
    <rect
       style="opacity:1;fill:#808080;fill-opacity:1;stroke:none;stroke-width:2;stroke-linecap:round;stroke-linejoin:round;stroke-miterlimit:4;stroke-dasharray:none;stroke-opacity:1"
       id="rect8315"
       width="1"
       height="1"
       x="1.9999994"
       y="1051.3622"
       ry="8.6913997e-06" />
    <rect
       style="opacity:1;fill:#808080;fill-opacity:1;stroke:none;stroke-width:2;stroke-linecap:round;stroke-linejoin:round;stroke-miterlimit:4;stroke-dasharray:none;stroke-opacity:1"
       id="rect8317"
       width="1"
       height="1"
       x="3.9999995"
       y="1051.3622"
       ry="8.6913997e-06" />
    <rect
       ry="8.6913997e-06"
       y="1051.3622"
       x="5.9999995"
       height="1"
       width="1"
       id="rect8319"
       style="opacity:1;fill:#808080;fill-opacity:1;stroke:none;stroke-width:2;stroke-linecap:round;stroke-linejoin:round;stroke-miterlimit:4;stroke-dasharray:none;stroke-opacity:1" />
    <rect
       style="opacity:1;fill:#808080;fill-opacity:1;stroke:none;stroke-width:2;stroke-linecap:round;stroke-linejoin:round;stroke-miterlimit:4;stroke-dasharray:none;stroke-opacity:1"
       id="rect8321"
       width="1"
       height="1"
       x="7.999999"
       y="1051.3622"
       ry="8.6913997e-06" />
    <rect
       ry="8.6913997e-06"
       y="1051.3622"
       x="10"
       height="1"
       width="1"
       id="rect8323"
       style="opacity:1;fill:#808080;fill-opacity:1;stroke:none;stroke-width:2;stroke-linecap:round;stroke-linejoin:round;stroke-miterlimit:4;stroke-dasharray:none;stroke-opacity:1" />
    <rect
       ry="8.6913997e-06"
       y="1051.3622"
       x="12"
       height="1"
       width="1"
       id="rect8325"
       style="opacity:1;fill:#808080;fill-opacity:1;stroke:none;stroke-width:2;stroke-linecap:round;stroke-linejoin:round;stroke-miterlimit:4;stroke-dasharray:none;stroke-opacity:1" />
    <rect
       style="opacity:1;fill:#808080;fill-opacity:1;stroke:none;stroke-width:2;stroke-linecap:round;stroke-linejoin:round;stroke-miterlimit:4;stroke-dasharray:none;stroke-opacity:1"
       id="rect8327"
       width="1"
       height="1"
       x="14"
       y="1051.3622"
       ry="8.6913997e-06" />
    <rect
       ry="8.6913997e-06"
       y="1051.3622"
       x="15.999999"
       height="1"
       width="1"
       id="rect8329"
       style="opacity:1;fill:#808080;fill-opacity:1;stroke:none;stroke-width:2;stroke-linecap:round;stroke-linejoin:round;stroke-miterlimit:4;stroke-dasharray:none;stroke-opacity:1" />
    <rect
       style="opacity:1;fill:#808080;fill-opacity:1;stroke:none;stroke-width:2;stroke-linecap:round;stroke-linejoin:round;stroke-miterlimit:4;stroke-dasharray:none;stroke-opacity:1"
       id="rect8331"
       width="1"
       height="1"
       x="18"
       y="1051.3622"
       ry="8.6913997e-06" />
    <rect
       style="opacity:1;fill:#808080;fill-opacity:1;stroke:none;stroke-width:2;stroke-linecap:round;stroke-linejoin:round;stroke-miterlimit:4;stroke-dasharray:none;stroke-opacity:1"
       id="rect8333"
       width="1"
       height="1"
       x="20"
       y="1051.3622"
       ry="8.6913997e-06" />
    <rect
       ry="8.6913997e-06"
       y="1051.3622"
       x="22"
       height="1"
       width="1"
       id="rect8335"
       style="opacity:1;fill:#808080;fill-opacity:1;stroke:none;stroke-width:2;stroke-linecap:round;stroke-linejoin:round;stroke-miterlimit:4;stroke-dasharray:none;stroke-opacity:1" />
    <rect
       style="opacity:1;fill:#808080;fill-opacity:1;stroke:none;stroke-width:2;stroke-linecap:round;stroke-linejoin:round;stroke-miterlimit:4;stroke-dasharray:none;stroke-opacity:1"
       id="rect8337"
       width="1"
       height="1"
       x="-1050.3622"
       y="24"
       ry="8.6913997e-06"
       transform="matrix(0,-1,1,0,0,0)" />
    <rect
       ry="8.6913997e-06"
       y="24"
       x="-1048.3622"
       height="1"
       width="1"
       id="rect8339"
       style="opacity:1;fill:#808080;fill-opacity:1;stroke:none;stroke-width:2;stroke-linecap:round;stroke-linejoin:round;stroke-miterlimit:4;stroke-dasharray:none;stroke-opacity:1"
       transform="matrix(0,-1,1,0,0,0)" />
    <rect
       ry="8.6913997e-06"
       y="24"
       x="-1046.3622"
       height="1"
       width="1"
       id="rect8341"
       style="opacity:1;fill:#808080;fill-opacity:1;stroke:none;stroke-width:2;stroke-linecap:round;stroke-linejoin:round;stroke-miterlimit:4;stroke-dasharray:none;stroke-opacity:1"
       transform="matrix(0,-1,1,0,0,0)" />
    <rect
       style="opacity:1;fill:#808080;fill-opacity:1;stroke:none;stroke-width:2;stroke-linecap:round;stroke-linejoin:round;stroke-miterlimit:4;stroke-dasharray:none;stroke-opacity:1"
       id="rect8343"
       width="1"
       height="1"
       x="-1044.3622"
       y="24"
       ry="8.6913997e-06"
       transform="matrix(0,-1,1,0,0,0)" />
    <rect
       ry="8.6913997e-06"
       y="24"
       x="-1042.3622"
       height="1"
       width="1"
       id="rect8345"
       style="opacity:1;fill:#808080;fill-opacity:1;stroke:none;stroke-width:2;stroke-linecap:round;stroke-linejoin:round;stroke-miterlimit:4;stroke-dasharray:none;stroke-opacity:1"
       transform="matrix(0,-1,1,0,0,0)" />
    <rect
       style="opacity:1;fill:#808080;fill-opacity:1;stroke:none;stroke-width:2;stroke-linecap:round;stroke-linejoin:round;stroke-miterlimit:4;stroke-dasharray:none;stroke-opacity:1"
       id="rect8347"
       width="1"
       height="1"
       x="-1040.3622"
       y="24"
       ry="8.6913997e-06"
       transform="matrix(0,-1,1,0,0,0)" />
    <rect
       style="opacity:1;fill:#808080;fill-opacity:1;stroke:none;stroke-width:2;stroke-linecap:round;stroke-linejoin:round;stroke-miterlimit:4;stroke-dasharray:none;stroke-opacity:1"
       id="rect8349"
       width="1"
       height="1"
       x="-1038.3622"
       y="24"
       ry="8.6913997e-06"
       transform="matrix(0,-1,1,0,0,0)" />
    <rect
       ry="8.6913997e-06"
       y="24"
       x="-1036.3622"
       height="1"
       width="1"
       id="rect8351"
       style="opacity:1;fill:#808080;fill-opacity:1;stroke:none;stroke-width:2;stroke-linecap:round;stroke-linejoin:round;stroke-miterlimit:4;stroke-dasharray:none;stroke-opacity:1"
       transform="matrix(0,-1,1,0,0,0)" />
    <rect
       style="opacity:1;fill:#808080;fill-opacity:1;stroke:none;stroke-width:2;stroke-linecap:round;stroke-linejoin:round;stroke-miterlimit:4;stroke-dasharray:none;stroke-opacity:1"
       id="rect8353"
       width="1"
       height="1"
       x="-1034.3622"
       y="24"
       ry="8.6913997e-06"
       transform="matrix(0,-1,1,0,0,0)" />
    <rect
       ry="8.6913997e-06"
       y="24"
       x="-1032.3622"
       height="1"
       width="1"
       id="rect8355"
       style="opacity:1;fill:#808080;fill-opacity:1;stroke:none;stroke-width:2;stroke-linecap:round;stroke-linejoin:round;stroke-miterlimit:4;stroke-dasharray:none;stroke-opacity:1"
       transform="matrix(0,-1,1,0,0,0)" />
    <rect
       ry="8.6913997e-06"
       y="24"
       x="-1030.3622"
       height="1"
       width="1"
       id="rect8357"
       style="opacity:1;fill:#808080;fill-opacity:1;stroke:none;stroke-width:2;stroke-linecap:round;stroke-linejoin:round;stroke-miterlimit:4;stroke-dasharray:none;stroke-opacity:1"
       transform="matrix(0,-1,1,0,0,0)" />
    <rect
       style="opacity:1;fill:#808080;fill-opacity:1;stroke:none;stroke-width:2;stroke-linecap:round;stroke-linejoin:round;stroke-miterlimit:4;stroke-dasharray:none;stroke-opacity:1"
       id="rect8359"
       width="1"
       height="1"
       x="-1028.3622"
       y="24"
       ry="8.6913997e-06"
       transform="matrix(0,-1,1,0,0,0)" />
    <rect
       transform="matrix(0,-1,1,0,0,0)"
       ry="8.6913997e-06"
       y="24"
       x="-1052.3622"
       height="1"
       width="1"
       id="rect8361"
       style="opacity:1;fill:#808080;fill-opacity:1;stroke:none;stroke-width:2;stroke-linecap:round;stroke-linejoin:round;stroke-miterlimit:4;stroke-dasharray:none;stroke-opacity:1" />
    <rect
       transform="matrix(0,-1,1,0,0,0)"
       style="opacity:1;fill:#808080;fill-opacity:1;stroke:none;stroke-width:2;stroke-linecap:round;stroke-linejoin:round;stroke-miterlimit:4;stroke-dasharray:none;stroke-opacity:1"
       id="rect8363"
       width="1"
       height="1"
       x="-1050.3622"
       y="0"
       ry="8.6913997e-06" />
    <rect
       transform="matrix(0,-1,1,0,0,0)"
       style="opacity:1;fill:#808080;fill-opacity:1;stroke:none;stroke-width:2;stroke-linecap:round;stroke-linejoin:round;stroke-miterlimit:4;stroke-dasharray:none;stroke-opacity:1"
       id="rect8365"
       width="1"
       height="1"
       x="-1048.3622"
       y="0"
       ry="8.6913997e-06" />
    <rect
       transform="matrix(0,-1,1,0,0,0)"
       ry="8.6913997e-06"
       y="0"
       x="-1046.3622"
       height="1"
       width="1"
       id="rect8367"
       style="opacity:1;fill:#808080;fill-opacity:1;stroke:none;stroke-width:2;stroke-linecap:round;stroke-linejoin:round;stroke-miterlimit:4;stroke-dasharray:none;stroke-opacity:1" />
    <rect
       transform="matrix(0,-1,1,0,0,0)"
       style="opacity:1;fill:#808080;fill-opacity:1;stroke:none;stroke-width:2;stroke-linecap:round;stroke-linejoin:round;stroke-miterlimit:4;stroke-dasharray:none;stroke-opacity:1"
       id="rect8369"
       width="1"
       height="1"
       x="-1044.3622"
       y="0"
       ry="8.6913997e-06" />
    <rect
       transform="matrix(0,-1,1,0,0,0)"
       ry="8.6913997e-06"
       y="0"
       x="-1042.3622"
       height="1"
       width="1"
       id="rect8371"
       style="opacity:1;fill:#808080;fill-opacity:1;stroke:none;stroke-width:2;stroke-linecap:round;stroke-linejoin:round;stroke-miterlimit:4;stroke-dasharray:none;stroke-opacity:1" />
    <rect
       transform="matrix(0,-1,1,0,0,0)"
       ry="8.6913997e-06"
       y="0"
       x="-1040.3622"
       height="1"
       width="1"
       id="rect8373"
       style="opacity:1;fill:#808080;fill-opacity:1;stroke:none;stroke-width:2;stroke-linecap:round;stroke-linejoin:round;stroke-miterlimit:4;stroke-dasharray:none;stroke-opacity:1" />
    <rect
       transform="matrix(0,-1,1,0,0,0)"
       style="opacity:1;fill:#808080;fill-opacity:1;stroke:none;stroke-width:2;stroke-linecap:round;stroke-linejoin:round;stroke-miterlimit:4;stroke-dasharray:none;stroke-opacity:1"
       id="rect8375"
       width="1"
       height="1"
       x="-1038.3622"
       y="0"
       ry="8.6913997e-06" />
    <rect
       transform="matrix(0,-1,1,0,0,0)"
       ry="8.6913997e-06"
       y="0"
       x="-1036.3622"
       height="1"
       width="1"
       id="rect8377"
       style="opacity:1;fill:#808080;fill-opacity:1;stroke:none;stroke-width:2;stroke-linecap:round;stroke-linejoin:round;stroke-miterlimit:4;stroke-dasharray:none;stroke-opacity:1" />
    <rect
       transform="matrix(0,-1,1,0,0,0)"
       style="opacity:1;fill:#808080;fill-opacity:1;stroke:none;stroke-width:2;stroke-linecap:round;stroke-linejoin:round;stroke-miterlimit:4;stroke-dasharray:none;stroke-opacity:1"
       id="rect8379"
       width="1"
       height="1"
       x="-1034.3622"
       y="0"
       ry="8.6913997e-06" />
    <rect
       transform="matrix(0,-1,1,0,0,0)"
       style="opacity:1;fill:#808080;fill-opacity:1;stroke:none;stroke-width:2;stroke-linecap:round;stroke-linejoin:round;stroke-miterlimit:4;stroke-dasharray:none;stroke-opacity:1"
       id="rect8381"
       width="1"
       height="1"
       x="-1032.3622"
       y="0"
       ry="8.6913997e-06" />
    <rect
       transform="matrix(0,-1,1,0,0,0)"
       ry="8.6913997e-06"
       y="0"
       x="-1030.3622"
       height="1"
       width="1"
       id="rect8383"
       style="opacity:1;fill:#808080;fill-opacity:1;stroke:none;stroke-width:2;stroke-linecap:round;stroke-linejoin:round;stroke-miterlimit:4;stroke-dasharray:none;stroke-opacity:1" />
  </g>
</svg>
