<?xml version="1.0" encoding="UTF-8" standalone="no"?>
<!-- Created with Inkscape (http://www.inkscape.org/) -->

<svg
   xmlns:dc="http://purl.org/dc/elements/1.1/"
   xmlns:cc="http://creativecommons.org/ns#"
   xmlns:rdf="http://www.w3.org/1999/02/22-rdf-syntax-ns#"
   xmlns:svg="http://www.w3.org/2000/svg"
   xmlns="http://www.w3.org/2000/svg"
   xmlns:sodipodi="http://sodipodi.sourceforge.net/DTD/sodipodi-0.dtd"
   xmlns:inkscape="http://www.inkscape.org/namespaces/inkscape"
   width="24"
   height="24"
   viewBox="0 0 24 24"
   id="svg4877"
   version="1.1"
   inkscape:version="0.91 r13725"
   sodipodi:docname="pattern_square.svg">
  <defs
     id="defs4879">
    <clipPath
       clipPathUnits="userSpaceOnUse"
       id="clipPath8159">
      <path
         style="color:#000000;font-style:normal;font-variant:normal;font-weight:normal;font-stretch:normal;font-size:medium;line-height:normal;font-family:sans-serif;text-indent:0;text-align:start;text-decoration:none;text-decoration-line:none;text-decoration-style:solid;text-decoration-color:#000000;letter-spacing:normal;word-spacing:normal;text-transform:none;direction:ltr;block-progression:tb;writing-mode:lr-tb;baseline-shift:baseline;text-anchor:start;white-space:normal;clip-rule:nonzero;display:inline;overflow:visible;visibility:visible;opacity:1;isolation:auto;mix-blend-mode:normal;color-interpolation:sRGB;color-interpolation-filters:linearRGB;solid-color:#000000;solid-opacity:1;fill:#ff0000;fill-opacity:1;fill-rule:nonzero;stroke:none;stroke-width:8;stroke-linecap:round;stroke-linejoin:round;stroke-miterlimit:4;stroke-dasharray:none;stroke-dashoffset:0;stroke-opacity:1;color-rendering:auto;image-rendering:auto;shape-rendering:auto;text-rendering:auto;enable-background:accumulate"
         d="m 3.8554688,1028.3164 a 4.0004,4.0004 0 0 0 -3.12695318,6.3477 c 2.18769138,3.1109 5.40035988,5.8736 8.52734378,8.6601 3.1269836,2.7865 6.1693646,5.5761 7.5273436,7.4141 a 4.0004,4.0004 0 1 0 6.433594,-4.7539 c -2.267021,-3.0683 -5.521515,-5.8568 -8.636719,-8.6328 -3.115204,-2.776 -6.090035,-5.5582 -7.3085936,-7.2911 a 4.0004,4.0004 0 0 0 -3.4160156,-1.7441 z"
         id="path8161"
         inkscape:connector-curvature="0" />
    </clipPath>
    <clipPath
       clipPathUnits="userSpaceOnUse"
       id="clipPath8190">
      <path
         inkscape:connector-curvature="0"
         id="path8192"
         d="m 24.057249,1032.2182 a 4.0004,4.0004 0 0 0 -6.3477,-3.127 c -3.1109,2.1877 -5.8736,5.4004 -8.6600996,8.5274 -2.7865,3.127 -5.5761,6.1694 -7.4141,7.5273 a 4.0004,4.0004 0 1 0 4.7539,6.4336 c 3.0683,-2.267 5.8567996,-5.5215 8.6327996,-8.6367 2.776,-3.1152 5.5582,-6.09 7.2911,-7.3086 a 4.0004,4.0004 0 0 0 1.7441,-3.416 z"
         style="color:#000000;font-style:normal;font-variant:normal;font-weight:normal;font-stretch:normal;font-size:medium;line-height:normal;font-family:sans-serif;text-indent:0;text-align:start;text-decoration:none;text-decoration-line:none;text-decoration-style:solid;text-decoration-color:#000000;letter-spacing:normal;word-spacing:normal;text-transform:none;direction:ltr;block-progression:tb;writing-mode:lr-tb;baseline-shift:baseline;text-anchor:start;white-space:normal;clip-rule:nonzero;display:inline;overflow:visible;visibility:visible;opacity:1;isolation:auto;mix-blend-mode:normal;color-interpolation:sRGB;color-interpolation-filters:linearRGB;solid-color:#000000;solid-opacity:1;fill:#ff0000;fill-opacity:1;fill-rule:nonzero;stroke:none;stroke-width:8;stroke-linecap:round;stroke-linejoin:round;stroke-miterlimit:4;stroke-dasharray:none;stroke-dashoffset:0;stroke-opacity:1;color-rendering:auto;image-rendering:auto;shape-rendering:auto;text-rendering:auto;enable-background:accumulate" />
    </clipPath>
  </defs>
  <sodipodi:namedview
     id="base"
     pagecolor="#ffffff"
     bordercolor="#666666"
     borderopacity="1.0"
     inkscape:pageopacity="0"
     inkscape:pageshadow="2"
     inkscape:zoom="16"
     inkscape:cx="7.2816081"
     inkscape:cy="7.7771659"
     inkscape:document-units="px"
     inkscape:current-layer="layer1"
     showgrid="true"
     units="px"
     inkscape:window-width="1920"
     inkscape:window-height="1181"
     inkscape:window-x="0"
     inkscape:window-y="19"
     inkscape:window-maximized="0"
     inkscape:snap-bbox="true"
     inkscape:snap-page="true"
     inkscape:bbox-nodes="true"
     inkscape:object-nodes="true"
     inkscape:snap-smooth-nodes="true"
     inkscape:snap-global="true">
    <inkscape:grid
       type="xygrid"
       id="grid4885"
       spacingx="0.99999998"
       spacingy="0.99999998"
       empspacing="8" />
  </sodipodi:namedview>
  <metadata
     id="metadata4882">
    <rdf:RDF>
      <cc:Work
         rdf:about="">
        <dc:format>image/svg+xml</dc:format>
        <dc:type
           rdf:resource="http://purl.org/dc/dcmitype/StillImage" />
        <dc:title></dc:title>
      </cc:Work>
    </rdf:RDF>
  </metadata>
  <g
     inkscape:label="Layer 1"
     inkscape:groupmode="layer"
     id="layer1"
     transform="translate(0,-1028.3622)">
    <path
       style="opacity:1;fill:none;fill-opacity:1;stroke:#ffffff;stroke-width:2;stroke-linecap:round;stroke-linejoin:round;stroke-miterlimit:4;stroke-dasharray:none;stroke-opacity:1"
       id="path8268"
       d="m 2.2352409,1034.1238 c 0.1992061,-0.2317 0.4671838,-0.3859 0.7284013,-0.5373 0.3353849,-0.1944 0.6717642,-0.3871 1.0076463,-0.5806 0.2407186,-0.1411 1.1675591,-0.5955 -0.042784,0.045 -0.068288,0.036 0.1299833,-0.083 0.1949411,-0.1254 0.2345164,-0.151 0.1059002,-0.07 0.3297107,-0.2094 0.2178657,-0.1405 0.4164164,-0.3055 0.6018254,-0.486 0.1386325,-0.1308 0.2534277,-0.2834 0.3867221,-0.4195 0.1410523,-0.1502 0.288109,-0.2903 0.4521354,-0.4149 0.1300791,-0.08 0.2343456,-0.1919 0.3505491,-0.2891 0.097546,-0.088 0.2126188,-0.1527 0.3198096,-0.2279 0.3625137,-0.3238 0.7863821,-0.5131 1.2165121,-0.7555 0.018622,2e-4 0.041164,-0.011 0.055866,4e-4 0.1411246,0.1097 -0.075613,0.4486 -0.1261053,0.5453 -0.043196,0.083 -0.088903,0.1641 -0.1333543,0.2462 -0.4228542,0.782 -0.7908074,1.5914 -1.1409459,2.408 -0.3964072,0.9811 -0.8093114,1.9551 -1.2200994,2.9302 -0.2833213,0.71 -0.6071569,1.4005 -0.94135,2.0873 -0.1367517,0.2873 -0.3222291,0.5461 -0.4814071,0.8203 -0.09068,0.166 -0.194945,0.3233 -0.295412,0.4832 -0.1050597,0.1475 -0.2096959,0.2952 -0.3154637,0.4422 -0.1007354,0.1483 -0.1979088,0.2982 -0.301063,0.4449 -0.093023,0.131 -0.1747684,0.2694 -0.2704626,0.3985 -0.3276525,0.4696 -0.098271,0.233 -1.0135559,0.5851 0.2247119,-0.3516 0.4103782,-0.7277 0.6051654,-1.0965 0.3614564,-0.7313 0.8922154,-1.3566 1.4308808,-1.9619 0.7814566,-0.801 1.4773878,-1.6782 2.2009316,-2.5304 0.6567146,-0.7601 1.339872,-1.4969 2.0322727,-2.2244 0.2417997,-0.28 0.4928489,-0.55 0.7553015,-0.8104 0.2227989,-0.2097 0.4696407,-0.3917 0.7110927,-0.579 0.2618852,-0.1955 0.5239064,-0.3899 0.7939855,-0.5739 0.196893,-0.1328 0.335432,-0.3226 0.475081,-0.5102 0.193565,-0.2799 0.906537,-1.0253 1.012304,-0.5387 0.0064,0.03 -0.0027,0.06 -0.0041,0.091 -0.129634,0.5822 -0.322489,1.1489 -0.511165,1.7141 -0.36505,1.0208 -0.778584,2.0232 -1.1581619,3.0386 -0.3872224,1.0832 -0.7854314,2.1613 -1.260014,3.2096 -0.3179111,0.7025 -0.7078251,1.3676 -1.105238,2.027 -0.2023207,0.3398 -0.4497027,0.6471 -0.7020133,0.9502 -0.2241076,0.2636 -0.4641539,0.5131 -0.6896254,0.7756 -0.2144906,0.252 -0.4206083,0.5109 -0.6337351,0.7641 -0.1997776,0.2195 -0.3787811,0.452 -0.5380739,0.7021 -0.1238622,0.2064 -0.2142282,0.4292 -0.3398852,0.6346 -0.1198219,0.1942 -0.2292723,0.3945 -0.3417989,0.593 -0.093924,0.1807 -0.1774386,0.3656 -0.2789443,0.5422 -0.078196,0.1615 -0.1999804,0.2944 -0.2954343,0.4448 -0.1440159,0.2654 -0.083385,0.164 -0.8130969,0.3063 -0.054311,0.011 0.052729,-0.097 0.079418,-0.1457 0.036274,-0.066 0.072474,-0.1318 0.1094685,-0.1973 0.1001712,-0.1773 0.2023397,-0.3535 0.3033137,-0.5303 0.5041753,-0.8077 1.1537682,-1.5107 1.7787984,-2.2247 0.7798181,-0.8841 1.6068035,-1.7246 2.4055149,-2.5914 0.556691,-0.6204 1.0866425,-1.2661 1.6815241,-1.8512 0.3735154,-0.3674 0.4456402,-0.4172 0.8390226,-0.753 0.71749,-0.5814 1.541297,-1.0059 2.338461,-1.4639 0.139977,-0.081 -0.276042,0.1681 -0.420164,0.2408 -0.09622,0.049 0.184102,-0.1121 0.276153,-0.1682 0.369091,-0.2142 0.713248,-0.4615 1.015137,-0.7631 0.257185,-0.2451 0.482889,-0.5201 0.728778,-0.7761 0.266354,-0.2799 0.540305,-0.5519 0.833204,-0.804 0.308418,-0.2727 0.62804,-0.5322 0.921186,-0.8215 0.21282,-0.2305 0.457227,-0.4278 0.691401,-0.6355 0.236927,-0.2205 0.489087,-0.4234 0.730661,-0.6386 0.171828,-0.1741 0.361249,-0.3283 0.546194,-0.4878 0.195954,-0.1802 0.397002,-0.3539 0.600826,-0.5251 0.188278,-0.1365 0.362712,-0.2898 0.537143,-0.4432 0.270757,-0.2335 0.384089,-0.2346 0.917338,-0.3738 0.03719,-0.01 -0.03853,0.066 -0.05862,0.099 -0.07836,0.1277 -0.159688,0.2536 -0.239654,0.3804 -0.07368,0.104 -0.144456,0.2101 -0.221047,0.312 -0.162897,0.2167 -0.515012,0.6464 -0.673594,0.8417 -0.491409,0.6053 -0.983931,1.2097 -1.474613,1.8156 -1.016687,1.2802 -2.05479,2.5451 -3.019147,3.8658 -0.206315,0.2825 -0.406496,0.5695 -0.609745,0.8542 -0.901492,1.3859 -1.697981,2.8361 -2.580493,4.2337 -0.160358,0.254 -0.327083,0.5039 -0.490624,0.7558 -0.8674465,1.2884 -1.8788839,2.4712 -2.905448,3.6339 -0.7366945,0.8615 -1.5710977,1.6281 -2.3970114,2.4015 -0.3115264,0.3236 -0.6573814,0.6176 -0.922736,0.982 -0.1705786,0.2472 0.7816433,-0.9166 0.5791998,-0.6949 -0.1082212,0.1102 -0.1994142,0.2352 -0.3017705,0.3505 -0.00862,0.01 -0.014232,0.024 -0.026242,0.029 0.6260017,-0.425 -0.5586131,0.2171 -0.8379197,0.3256 0.1383691,-0.3062 0.3592304,-0.5644 0.5769286,-0.8166 0.2110638,-0.2334 -0.7202481,0.9274 -0.4778513,0.7253 0.1698427,-0.1415 0.2669979,-0.2024 0.4507209,-0.3294 0.4376161,-0.2688 0.8561969,-0.5669 1.2885315,-0.8439 0.3833191,-0.2455 0.6232194,-0.3874 1.0191403,-0.6275 1.0997515,-0.6741 2.2432666,-1.2737 3.3512843,-1.9335 0.00772,0 0.00562,-0.019 0.013092,-0.024 0.2207235,-0.1473 0.4459585,-0.2878 0.6689375,-0.4318 0.978094,-0.6662 1.908127,-1.4088 2.763369,-2.2278 0.151766,-0.1453 0.29608,-0.2982 0.444121,-0.4474 0.71901,-0.7423 1.2726,-1.6148 1.835543,-2.475 0.312108,-0.4947 0.671045,-0.9546 1.050691,-1.3984 0.320178,-0.3605 0.661445,-0.7022 1.015657,-1.0292 0.318567,-0.2972 0.641082,-0.5901 0.957378,-0.8897 0.413099,-0.4432 0.469624,-0.5397 1.192589,-0.8402 0.0325,-0.014 0.02942,0.064 0.04413,0.096 -0.0073,0.023 -0.01225,0.047 -0.02201,0.07 -0.03534,0.081 -0.08199,0.1564 -0.12425,0.2339 -0.116092,0.2129 -0.237016,0.423 -0.358021,0.6332 -0.422106,0.749 -0.755246,1.5428 -1.090041,2.3333 -0.423132,0.994 -0.791565,2.0099 -1.196352,3.0113 -0.306431,0.7973 -0.667404,1.5719 -1.003615,2.3567 -0.23053,0.5356 -0.446893,1.0756 -0.736681,1.5825 -0.191573,0.3131 -0.415635,0.6046 -0.606453,0.918 -0.120754,0.1705 -0.222853,0.3524 -0.328253,0.5324 -0.03529,0.06 -0.07474,0.1182 -0.115367,0.1751 -0.0042,0.01 -0.0088,0.024 -0.01262,0.018 -0.01794,-0.029 -0.0038,-0.1095 -0.03568,-0.097 -0.269857,0.1086 -0.51034,0.2792 -0.76551,0.4188 0.30354,-0.272 0.645506,-0.4966 0.980575,-0.7271 0.869852,-0.5934 1.731686,-1.1984 2.579514,-1.8229 0.795112,-0.6362 1.623588,-1.2291 2.470008,-1.7947 0.265259,-0.1895 0.540334,-0.368 0.78855,-0.5801 0.315585,-0.2719 0.686743,-0.428 1.050957,-0.6474 0.08724,-0.053 -2.253583,1.2991 0.110014,-0.065 0.157675,-0.066 0.205767,-0.1037 0.288186,0.081 0.06839,0.3012 -0.02155,0.6152 -0.08033,0.9115 -0.134634,0.5911 -0.340935,1.1629 -0.564355,1.7255 -0.272443,0.6345 -0.551004,1.2668 -0.834982,1.8964 -0.192347,0.4225 -0.424996,0.8241 -0.655387,1.2264 -0.107004,0.1675 -0.221821,0.3302 -0.315294,0.506 -0.05224,0.099 -0.103557,0.1993 -0.164269,0.2936 -0.02187,0.039 -0.04583,0.078 -0.0667,0.1174 -0.0033,0.01 -0.0031,0.025 -0.0082,0.02 -0.01405,-0.014 -0.0075,-0.061 -0.02571,-0.053 -0.278235,0.1159 -0.540081,0.2679 -0.810122,0.4018 0.182891,-0.1262 0.352531,-0.271 0.52523,-0.4107 0.463336,-0.3509 0.988291,-0.6073 1.488417,-0.8998 0.09846,-0.059 0.208897,-0.096 0.310066,-0.1484 0.03005,-0.016 0.115082,-0.071 0.08563,-0.055 -0.66578,0.3776 -0.943635,0.5631 -0.643827,0.365 0.06443,-0.05 0.134153,-0.093 0.200561,-0.1409 l 0.865228,-0.3382 0,0 c -0.07077,0.043 -0.136537,0.093 -0.206242,0.1384 -0.397808,0.3216 -0.877377,0.5165 -1.325117,0.7556 -0.322578,0.1766 -0.224365,0.1243 0.560204,-0.3328 0.04008,-0.023 -0.07987,0.047 -0.119073,0.072 -0.08288,0.053 -0.165604,0.1051 -0.247488,0.1591 -0.04079,0.027 -0.08035,0.056 -0.120518,0.083 -0.167687,0.1379 -0.337898,0.2735 -0.503439,0.4134 -0.285195,0.1437 -0.561407,0.3068 -0.855583,0.431 -0.01977,0.01 -0.02479,-0.036 -0.02978,-0.057 -0.0021,-0.01 0.05022,-0.088 0.05479,-0.096 0.0089,-0.016 0.01442,-0.033 0.02162,-0.05 0.05695,-0.095 0.117098,-0.1884 0.170637,-0.2863 0.08405,-0.1863 0.208598,-0.3518 0.326614,-0.5177 0.233773,-0.4063 0.486272,-0.8029 0.682851,-1.2298 0.290659,-0.6254 0.561036,-1.2606 0.837053,-1.8925 0.222426,-0.5544 0.425688,-1.1192 0.556518,-1.7031 0.06215,-0.3284 0.02415,-0.1088 0.06885,-0.4126 0.02157,-0.1467 0.05253,-0.2918 0.01223,-0.4385 -0.0037,-0.01 -0.0042,-0.022 -0.01105,-0.031 -0.01147,-0.014 -0.166515,0.066 -0.189024,0.079 0.246705,-0.143 0.986583,-0.5723 0.740114,-0.4289 -0.282743,0.1645 -0.563208,0.333 -0.848937,0.4922 -0.244877,0.1365 0.483778,-0.2834 0.726358,-0.4239 0.02268,-0.013 -0.04512,0.027 -0.06662,0.042 -0.04608,0.032 -0.08741,0.071 -0.134322,0.1017 -0.260637,0.2219 -0.541768,0.4118 -0.824011,0.6062 -0.864178,0.5619 -1.706787,1.1584 -2.509614,1.8054 -0.834233,0.6183 -1.682291,1.2174 -2.535908,1.8086 -0.32175,0.2229 -0.654378,0.4375 -0.943993,0.7019 -0.235047,0.1357 -0.723062,0.7893 -0.917796,0.3953 -0.0057,-0.011 0.154823,-0.1607 0.140709,-0.1886 0.118262,-0.1744 0.201961,-0.3721 0.338947,-0.5349 0.188878,-0.3185 0.415935,-0.6113 0.617509,-0.9217 0.304205,-0.5098 0.530601,-1.0413 0.768007,-1.5846 0.337281,-0.7886 0.699583,-1.5664 1.019522,-2.3624 0.411189,-0.9986 0.779699,-2.0141 1.194227,-3.0113 0.327771,-0.786 0.651882,-1.5756 1.052835,-2.328 0.164968,-0.2931 0.322263,-0.5917 0.482836,-0.8863 0.252736,0.2706 0.02481,0.061 0.821878,-0.3954 0.02107,-0.012 -0.04194,0.025 -0.06057,0.04 -0.120538,0.1007 -0.213341,0.2308 -0.324183,0.341 -0.317032,0.3007 -0.640581,0.5942 -0.959715,0.8926 -0.357491,0.3223 -0.699181,0.6625 -1.021563,1.02 -0.387609,0.4453 -0.760562,0.9024 -1.081347,1.3993 -0.578542,0.8648 -1.136027,1.7501 -1.86076,2.504 -0.149324,0.1511 -0.294786,0.3062 -0.44797,0.4534 -0.859312,0.826 -1.794571,1.5748 -2.777195,2.248 -0.223768,0.1452 -0.443491,0.2969 -0.671303,0.4356 -1.1276799,0.6869 -2.2206901,1.274 -3.3363401,1.9458 -0.3489203,0.2124 -0.6550464,0.3954 -0.9965887,0.6154 -0.3364123,0.2166 -0.6611532,0.4511 -0.9966954,0.6689 -0.086973,0.056 -0.1766359,0.1086 -0.2649539,0.163 -0.161134,0.1085 -0.2981363,0.1956 -0.4493459,0.3167 -0.2441618,0.1957 0.6879214,-0.9681 0.4775924,-0.7379 -0.1309982,0.1497 -0.2622225,0.2988 -0.3773507,0.4614 -0.1291239,0.1824 -0.042962,0.068 -0.1474277,0.2431 -0.013231,0.022 -0.029294,0.043 -0.043941,0.064 -1.9133629,0.9343 -0.9881494,0.5735 -0.7733779,0.3483 0.091243,-0.096 0.1621792,-0.2087 0.2570728,-0.3012 0.2054327,-0.2174 0.3961165,-0.4483 0.5688461,-0.6927 0.076062,-0.1111 -1.0232014,1.2185 -0.9316435,1.1169 0.2324534,-0.2579 0.5043252,-0.48 0.7416695,-0.7331 0.8444303,-0.7739 1.6970884,-1.5414 2.4446747,-2.4123 1.0363478,-1.1637 2.0559142,-2.3488 2.9387142,-3.6353 0.1658505,-0.2522 0.3352981,-0.502 0.4975511,-0.7566 0.891527,-1.3984 1.693101,-2.8522 2.593618,-4.245 0.202302,-0.285 0.401529,-0.5721 0.606906,-0.8549 0.956315,-1.3166 1.986198,-2.5777 2.991195,-3.8569 0.478829,-0.5993 0.959088,-1.1975 1.435559,-1.7988 0.109555,-0.1382 0.52115,-0.6553 0.644919,-0.8232 0.07216,-0.098 0.138358,-0.2001 0.207537,-0.3002 0.0029,0 0.247573,-0.442 0.273929,-0.4562 0.287091,-0.1544 0.588449,-0.2807 0.882616,-0.4211 0.0359,-0.017 -0.188081,0.086 -0.102238,0.062 -0.175519,0.1562 -0.349702,0.3157 -0.544129,0.4482 -0.201544,0.1716 -0.406127,0.339 -0.59796,0.5214 -0.180532,0.1664 -0.381828,0.3086 -0.549855,0.4888 -0.239719,0.2181 -0.495816,0.4171 -0.731818,0.6394 -0.233272,0.2106 -0.482965,0.404 -0.698596,0.6331 -0.291501,0.2942 -0.612128,0.5547 -0.921583,0.8296 -0.294634,0.2468 -0.568402,0.5153 -0.832488,0.7945 -0.25,0.252 -0.470714,0.5312 -0.728259,0.7757 -0.300111,0.3181 -0.649201,0.5756 -1.028897,0.793 -0.588607,0.3597 -0.363594,0.2255 -1.357424,0.7928 -0.123081,0.07 0.497189,-0.2703 0.366397,-0.2157 -0.145379,0.061 -0.276348,0.1516 -0.410526,0.2342 -0.351585,0.2162 -0.495883,0.3337 -0.831232,0.5807 -0.397199,0.3327 -0.472831,0.3843 -0.850196,0.7492 -0.5996218,0.5799 -1.1305221,1.2245 -1.6825021,1.8486 -0.7954,0.8663 -1.6197854,1.7055 -2.3993056,2.5864 -0.6142582,0.7049 -1.2518618,1.3997 -1.7514874,2.1934 -0.096282,0.174 -0.1945032,0.347 -0.2889829,0.5221 -0.034476,0.064 -0.067171,0.1287 -0.1007831,0.193 -0.024104,0.046 -0.02836,0.1106 -0.072368,0.1384 -0.2838282,0.1793 -0.5918301,0.3173 -0.8907467,0.4701 -0.00845,0 0.01107,-0.015 0.016605,-0.023 0.029139,-0.044 0.053471,-0.09 0.08351,-0.1336 0.072378,-0.1038 0.1716538,-0.1897 0.2199377,-0.3095 0.1029047,-0.1759 0.1921785,-0.3564 0.2788898,-0.5407 0.1116711,-0.2013 0.2274778,-0.3995 0.3420518,-0.599 0.1344274,-0.2014 0.2251103,-0.4231 0.3409858,-0.635 0.074426,-0.1164 0.1443682,-0.2351 0.2275743,-0.3457 0.1230894,-0.1635 0.068837,-0.083 0.2052273,-0.2419 0.03601,-0.042 0.069999,-0.085 0.1049989,-0.128 0.2157689,-0.2516 0.4205752,-0.5122 0.6354663,-0.7642 0.2201501,-0.2673 0.4634039,-0.514 0.6901518,-0.7755 0.2537451,-0.304 0.5106192,-0.6056 0.7194979,-0.9437 0.4152256,-0.6594 0.8242562,-1.325 1.1492761,-2.0349 0.197066,-0.4273 0.2593146,-0.5505 0.4395323,-0.9895 0.2998819,-0.7305 0.5579234,-1.4769 0.8301874,-2.2178 0.374205,-1.0107 0.7830475,-2.0085 1.1388954,-3.0259 0.177702,-0.5503 0.353695,-1.1026 0.468862,-1.6701 0.02531,-0.1951 -0.0179,-0.01 0.0413,-0.039 0.264408,-0.1388 0.515164,-0.3023 0.773936,-0.4513 0.01503,-0.01 -0.02982,0.018 -0.04252,0.03 -0.03887,0.036 -0.07485,0.089 -0.105653,0.1311 -0.150627,0.1866 -0.275649,0.3956 -0.472607,0.54 -0.269499,0.1857 -0.53715,0.3728 -0.798667,0.5697 -0.2382817,0.1868 -0.4815655,0.3675 -0.7102082,0.5662 -0.2658765,0.2712 -0.5443714,0.5301 -0.7883161,0.8226 -0.7099592,0.7268 -1.408887,1.4649 -2.0718349,2.2352 -0.7202958,0.8465 -1.4028956,1.7265 -2.1792645,2.5236 -0.5333018,0.5945 -1.0605741,1.2104 -1.4161606,1.9316 -0.1869733,0.3646 -0.3739948,0.7291 -0.5616155,1.0934 -0.2963218,0.1324 -0.5931835,0.2636 -0.8889655,0.3973 -0.00794,0 0.018358,0 0.025172,-0.01 0.075705,-0.06 0.1133871,-0.1692 0.1754172,-0.2411 0.095242,-0.1292 0.1813232,-0.2629 0.2736031,-0.3945 0.094167,-0.1523 0.2080958,-0.2917 0.2990582,-0.4466 0.1008891,-0.1489 0.2093672,-0.2941 0.3167101,-0.4379 0.1009672,-0.1604 0.208655,-0.3153 0.3010901,-0.4813 0.1577948,-0.2827 0.3589373,-0.5388 0.5084856,-0.8267 0.1456765,-0.2899 0.3000134,-0.5758 0.4382016,-0.8694 0.14792,-0.3143 0.2083757,-0.4699 0.3476953,-0.7944 0.061954,-0.1443 0.1247737,-0.2882 0.1871606,-0.4323 0.4146777,-0.9758 0.8385548,-1.9476 1.2277736,-2.9339 0.34163,-0.8103 0.6957351,-1.6161 1.0994636,-2.3978 0.081692,-0.1544 0.1505673,-0.2783 0.222185,-0.4352 0.02008,-0.044 0.034691,-0.09 0.055128,-0.1342 0.00851,-0.018 0.013743,-0.042 0.03148,-0.052 0.00936,-0.01 0.026173,0.013 0.022548,0.023 -0.00453,0.013 -0.024332,0.011 -0.036498,0.016 0.2398045,-0.14 0.4798205,-0.2797 0.7194134,-0.4201 0.026341,-0.016 -0.053464,0.029 -0.079651,0.045 -0.098511,0.059 -0.1941814,0.1286 -0.2718938,0.2133 -0.102934,0.081 -0.2151287,0.1449 -0.3214011,0.2207 -0.06593,0.06 -0.031069,0.032 -0.1047305,0.084 -0.080991,0.072 -0.1472124,0.1649 -0.2480289,0.2134 -0.164617,0.1225 -0.3246447,0.245 -0.4565705,0.4044 -0.1420909,0.1293 -0.254301,0.284 -0.3879018,0.4203 -0.1922366,0.1819 -0.3826304,0.3642 -0.6064026,0.5088 -0.1364077,0.083 -0.2010192,0.1212 -0.3376397,0.2099 -0.065997,0.043 -0.128961,0.091 -0.1966602,0.1306 -0.490814,0.2908 -0.9824804,0.5759 -1.4883318,0.8387 1.1496592,-0.6659 0.2086038,-0.1421 -0.021707,0.036 -0.048692,0.038 -0.1191858,0.1105 -0.1658335,0.1573 l -0.854279,0.3629 z"
       inkscape:connector-curvature="0"
       sodipodi:nodetypes="ccccccccccccccccccccccccccccccccccccccccccccccccccccccccccccccccccccccccccccccccccccccccccccccccccccsccccccccccccccccccccccccccccccccccccccccccccccccccccccccccccccccccccccccccccccccccccccccccccccccccccccccccccccccccccccccccccccccccccccccccccccccsccccccccccccccccccccccccscccccccccccccccccccccccc" />
  </g>
</svg>
