<?xml version="1.0" encoding="UTF-8" standalone="no"?>
<!-- Created with Inkscape (http://www.inkscape.org/) -->

<svg
   xmlns:dc="http://purl.org/dc/elements/1.1/"
   xmlns:cc="http://creativecommons.org/ns#"
   xmlns:rdf="http://www.w3.org/1999/02/22-rdf-syntax-ns#"
   xmlns:svg="http://www.w3.org/2000/svg"
   xmlns="http://www.w3.org/2000/svg"
   xmlns:sodipodi="http://sodipodi.sourceforge.net/DTD/sodipodi-0.dtd"
   xmlns:inkscape="http://www.inkscape.org/namespaces/inkscape"
   width="1024"
   height="123"
   viewBox="0 0 1024 123"
   id="svg4877"
   version="1.1"
   inkscape:version="0.91 r13725"
   sodipodi:docname="punch_card.svg"
   inkscape:export-filename="/home/thomas/embroider/assets/images/punch_card.png"
   inkscape:export-xdpi="90"
   inkscape:export-ydpi="90">
  <defs
     id="defs4879">
    <filter
       inkscape:collect="always"
       style="color-interpolation-filters:sRGB"
       id="filter4740"
       x="-0.0069428571"
       width="1.0138857"
       y="-0.044181816"
       height="1.0883636">
      <feGaussianBlur
         inkscape:collect="always"
         stdDeviation="2.025"
         id="feGaussianBlur4742" />
    </filter>
    <filter
       inkscape:collect="always"
       style="color-interpolation-filters:sRGB"
       id="filter9066"
       x="-0.072000002"
       width="1.144"
       y="-0.071999998"
       height="1.144">
      <feGaussianBlur
         inkscape:collect="always"
         stdDeviation="0.90000003"
         id="feGaussianBlur9068" />
    </filter>
  </defs>
  <sodipodi:namedview
     id="base"
     pagecolor="#ffffff"
     bordercolor="#666666"
     borderopacity="1.0"
     inkscape:pageopacity="0.0"
     inkscape:pageshadow="2"
     inkscape:zoom="1"
     inkscape:cx="71.43268"
     inkscape:cy="79.833591"
     inkscape:document-units="px"
     inkscape:current-layer="layer1"
     showgrid="true"
     units="px"
     inkscape:window-width="1920"
     inkscape:window-height="1181"
     inkscape:window-x="0"
     inkscape:window-y="19"
     inkscape:window-maximized="0"
     inkscape:snap-bbox="true"
     inkscape:bbox-nodes="true"
     inkscape:snap-page="true"
     inkscape:object-nodes="true"
     inkscape:snap-smooth-nodes="true">
    <inkscape:grid
       type="xygrid"
       id="grid4885"
       spacingx="9.9999999"
       spacingy="10"
       empspacing="5"
       originy="3"
       originx="94" />
    <inkscape:grid
       type="xygrid"
       id="grid4744"
       dotted="true"
       color="#ff3f3f"
       opacity="0.1254902"
       empcolor="#ff3f3f"
       empopacity="0.25098039"
       originy="3"
       originx="94" />
  </sodipodi:namedview>
  <metadata
     id="metadata4882">
    <rdf:RDF>
      <cc:Work
         rdf:about="">
        <dc:format>image/svg+xml</dc:format>
        <dc:type
           rdf:resource="http://purl.org/dc/dcmitype/StillImage" />
        <dc:title></dc:title>
      </cc:Work>
    </rdf:RDF>
  </metadata>
  <g
     inkscape:label="Layer 1"
     inkscape:groupmode="layer"
     id="layer1"
     transform="translate(0,-929.3622)">
    <rect
       ry="5.7942666e-06"
       y="970.36218"
       x="15"
       height="30.000002"
       width="30"
       id="rect9020"
       style="opacity:0.5;fill:#000000;fill-opacity:1;stroke:none;stroke-width:2;stroke-linecap:round;stroke-linejoin:round;stroke-miterlimit:4;stroke-dasharray:none;stroke-opacity:1;filter:url(#filter9066)" />
    <rect
       ry="1.7382812e-05"
       y="931.36218"
       x="96"
       height="109.99998"
       width="920"
       id="rect4734"
       style="opacity:1;fill:#000000;fill-opacity:1;stroke:none;stroke-width:2;stroke-linecap:round;stroke-linejoin:round;stroke-miterlimit:4;stroke-dasharray:none;stroke-opacity:1;filter:url(#filter4740)" />
    <rect
       style="opacity:1;fill:#e9c6af;fill-opacity:1;stroke:none;stroke-width:2;stroke-linecap:round;stroke-linejoin:round;stroke-miterlimit:4;stroke-dasharray:none;stroke-opacity:1"
       id="rect4134"
       width="920"
       height="109.99998"
       x="94"
       y="929.36218"
       ry="1.7382812e-05" />
    <rect
       style="opacity:1;fill:#e6e6e6;fill-opacity:1;stroke:none;stroke-width:2;stroke-linecap:round;stroke-linejoin:round;stroke-miterlimit:4;stroke-dasharray:none;stroke-opacity:1"
       id="rect4746"
       width="8"
       height="2"
       x="80"
       y="933.36218"
       ry="1.7382799e-05" />
    <rect
       ry="1.7382799e-05"
       y="943.36218"
       x="80"
       height="2"
       width="8"
       id="rect4748"
       style="opacity:1;fill:#e6e6e6;fill-opacity:1;stroke:none;stroke-width:2;stroke-linecap:round;stroke-linejoin:round;stroke-miterlimit:4;stroke-dasharray:none;stroke-opacity:1" />
    <rect
       ry="1.7382799e-05"
       y="953.36218"
       x="80"
       height="2"
       width="8"
       id="rect4756"
       style="opacity:1;fill:#e6e6e6;fill-opacity:1;stroke:none;stroke-width:2;stroke-linecap:round;stroke-linejoin:round;stroke-miterlimit:4;stroke-dasharray:none;stroke-opacity:1" />
    <rect
       style="opacity:1;fill:#e6e6e6;fill-opacity:1;stroke:none;stroke-width:2;stroke-linecap:round;stroke-linejoin:round;stroke-miterlimit:4;stroke-dasharray:none;stroke-opacity:1"
       id="rect4758"
       width="8"
       height="2"
       x="80"
       y="963.36218"
       ry="1.7382799e-05" />
    <rect
       ry="1.7382799e-05"
       y="973.36218"
       x="80"
       height="2"
       width="8"
       id="rect4760"
       style="opacity:1;fill:#e6e6e6;fill-opacity:1;stroke:none;stroke-width:2;stroke-linecap:round;stroke-linejoin:round;stroke-miterlimit:4;stroke-dasharray:none;stroke-opacity:1" />
    <rect
       style="opacity:1;fill:#e6e6e6;fill-opacity:1;stroke:none;stroke-width:2;stroke-linecap:round;stroke-linejoin:round;stroke-miterlimit:4;stroke-dasharray:none;stroke-opacity:1"
       id="rect4762"
       width="8"
       height="2"
       x="80"
       y="983.36218"
       ry="1.7382799e-05" />
    <rect
       style="opacity:1;fill:#e6e6e6;fill-opacity:1;stroke:none;stroke-width:2;stroke-linecap:round;stroke-linejoin:round;stroke-miterlimit:4;stroke-dasharray:none;stroke-opacity:1"
       id="rect4764"
       width="8"
       height="2"
       x="80"
       y="993.36218"
       ry="1.7382799e-05" />
    <rect
       ry="1.7382799e-05"
       y="1003.3622"
       x="80"
       height="2"
       width="8"
       id="rect4766"
       style="opacity:1;fill:#e6e6e6;fill-opacity:1;stroke:none;stroke-width:2;stroke-linecap:round;stroke-linejoin:round;stroke-miterlimit:4;stroke-dasharray:none;stroke-opacity:1" />
    <rect
       style="opacity:1;fill:#e6e6e6;fill-opacity:1;stroke:none;stroke-width:2;stroke-linecap:round;stroke-linejoin:round;stroke-miterlimit:4;stroke-dasharray:none;stroke-opacity:1"
       id="rect4768"
       width="8"
       height="2"
       x="80"
       y="1013.3622"
       ry="1.7382799e-05" />
    <rect
       ry="1.7382799e-05"
       y="1023.3622"
       x="80"
       height="2"
       width="8"
       id="rect4770"
       style="opacity:1;fill:#e6e6e6;fill-opacity:1;stroke:none;stroke-width:2;stroke-linecap:round;stroke-linejoin:round;stroke-miterlimit:4;stroke-dasharray:none;stroke-opacity:1" />
    <rect
       ry="1.7382799e-05"
       y="1033.3622"
       x="80"
       height="2"
       width="8"
       id="rect4772"
       style="opacity:1;fill:#e6e6e6;fill-opacity:1;stroke:none;stroke-width:2;stroke-linecap:round;stroke-linejoin:round;stroke-miterlimit:4;stroke-dasharray:none;stroke-opacity:1" />
    <path
       style="opacity:1;fill:#e6e6e6;fill-opacity:1;stroke:none;stroke-width:2;stroke-linecap:round;stroke-linejoin:round;stroke-miterlimit:4;stroke-dasharray:none;stroke-opacity:1"
       d="m 65,980.3622 2,0 2,2 2,-2 2,0 0,2 -2,2 2,2 0,2 -2,0 -2,-2 -2,2 -2,0 0,-2 2,-2 -2,-2 z"
       id="path6011"
       inkscape:connector-curvature="0"
       sodipodi:nodetypes="ccccccccccccccccc" />
    <path
       style="opacity:1;fill:#e6e6e6;fill-opacity:1;stroke:none;stroke-width:2;stroke-linecap:round;stroke-linejoin:round;stroke-miterlimit:4;stroke-dasharray:none;stroke-opacity:1"
       d="m 65,1033.3622 0,2 4,0 0,2 4,-3 -4,-3 0,2 z"
       id="path6013"
       inkscape:connector-curvature="0"
       sodipodi:nodetypes="cccccccc" />
    <path
       sodipodi:nodetypes="cccccccc"
       inkscape:connector-curvature="0"
       id="path6015"
       d="m 73,1023.3622 0,2 -4,0 0,2 -4,-3 4,-3 0,2 z"
       style="opacity:1;fill:#e6e6e6;fill-opacity:1;stroke:none;stroke-width:2;stroke-linecap:round;stroke-linejoin:round;stroke-miterlimit:4;stroke-dasharray:none;stroke-opacity:1" />
    <path
       style="opacity:1;fill:#e6e6e6;fill-opacity:1;stroke:none;stroke-width:2;stroke-linecap:round;stroke-linejoin:round;stroke-miterlimit:4;stroke-dasharray:none;stroke-opacity:1"
       d="m 68,1010.3622 2,0 0,4 2,0 -3,4 -3,-4 2,0 z"
       id="path6017"
       inkscape:connector-curvature="0"
       sodipodi:nodetypes="cccccccc" />
    <path
       sodipodi:nodetypes="cccccccc"
       inkscape:connector-curvature="0"
       id="path6019"
       d="m 68,1008.3622 2,0 0,-4 2,0 -3,-4 -3,4 2,0 z"
       style="opacity:1;fill:#e6e6e6;fill-opacity:1;stroke:none;stroke-width:2;stroke-linecap:round;stroke-linejoin:round;stroke-miterlimit:4;stroke-dasharray:none;stroke-opacity:1" />
    <path
       style="opacity:1;fill:#e6e6e6;fill-opacity:1;stroke:none;stroke-width:2;stroke-linecap:round;stroke-linejoin:round;stroke-miterlimit:4;stroke-dasharray:none;stroke-opacity:1"
       d="m 69,990.3622 -2,1 1,0 0,2 -2,0 0,-1 -1,2 1,2 0,-1 2,0 0,2 -1,0 2,1 2,-1 -1,0 0,-2 2,0 0,1 1,-2 -1,-2 0,1 -2,0 0,-2 1,0 z"
       id="path8196"
       inkscape:connector-curvature="0"
       sodipodi:nodetypes="ccccccccccccccccccccccccc" />
    <rect
       style="opacity:1;fill:#808080;fill-opacity:1;stroke:none;stroke-width:2;stroke-linecap:round;stroke-linejoin:round;stroke-miterlimit:4;stroke-dasharray:none;stroke-opacity:1"
       id="rect9016"
       width="30"
       height="30.000002"
       x="14.000001"
       y="969.36218"
       ry="5.7942666e-06" />
    <rect
       ry="1.7382799e-05"
       y="983.36218"
       x="50"
       height="2"
       width="8"
       id="rect9018"
       style="opacity:1;fill:#e6e6e6;fill-opacity:1;stroke:none;stroke-width:2;stroke-linecap:round;stroke-linejoin:round;stroke-miterlimit:4;stroke-dasharray:none;stroke-opacity:1" />
    <path
       style="opacity:1;fill:#e6e6e6;fill-opacity:1;stroke:none;stroke-width:2;stroke-linecap:square;stroke-linejoin:miter;stroke-miterlimit:4;stroke-dasharray:none;stroke-opacity:1"
       d="m 68,11 0,3 -3,0 0,2 3,0 0,3 2,0 0,-3 3,0 0,-2 -3,0 0,-3 z"
       transform="translate(0,929.3622)"
       id="path13793"
       inkscape:connector-curvature="0"
       sodipodi:nodetypes="ccccccccccccc" />
    <path
       sodipodi:nodetypes="ccccc"
       inkscape:connector-curvature="0"
       id="path13795"
       d="m 65,953.3622 0,2 8,0 0,-2 z"
       style="opacity:1;fill:#e6e6e6;fill-opacity:1;stroke:none;stroke-width:2;stroke-linecap:square;stroke-linejoin:miter;stroke-miterlimit:4;stroke-dasharray:none;stroke-opacity:1" />
    <path
       style="opacity:1;fill:#e6e6e6;fill-opacity:1;stroke:none;stroke-width:2;stroke-linecap:square;stroke-linejoin:miter;stroke-miterlimit:4;stroke-dasharray:none;stroke-opacity:1"
       d="m 71.541016,930.3622 a 4,4 0 0 0 -0.541016,2 4,4 0 0 0 0.541016,1.99805 A 4,4.0000172 0 0 0 71,936.3622 a 4,4.0000172 0 0 0 0.541016,2 l 1.458984,0 0,-8 -1.458984,0 z"
       id="path13800"
       inkscape:connector-curvature="0" />
    <path
       style="opacity:1;fill:#e6e6e6;fill-opacity:1;stroke:none;stroke-width:2;stroke-linecap:square;stroke-linejoin:miter;stroke-miterlimit:4;stroke-dasharray:none;stroke-opacity:1"
       d="m 70,936.3622 -2,-2 0,1 -3,0 0,2 3,0 0,1 z"
       id="path13808"
       inkscape:connector-curvature="0" />
    <path
       style="opacity:1;fill:#e6e6e6;fill-opacity:1;stroke:none;stroke-width:2;stroke-linecap:square;stroke-linejoin:miter;stroke-miterlimit:4;stroke-dasharray:none;stroke-opacity:1"
       d="M 69 31 A 3 4 0 0 0 66 35 A 3 4 0 0 0 69 39 A 3 4 0 0 0 72 35 A 3 4 0 0 0 69 31 z M 69 33 A 1 2 0 0 1 70 35 A 1 2 0 0 1 69 37 A 1 2 0 0 1 68 35 A 1 2 0 0 1 69 33 z "
       transform="translate(0,929.3622)"
       id="path13810" />
    <path
       style="opacity:1;fill:#e6e6e6;fill-opacity:1;stroke:none;stroke-width:2;stroke-linecap:square;stroke-linejoin:miter;stroke-miterlimit:4;stroke-dasharray:none;stroke-opacity:1"
       d="m 65,970.3622 8,4 -8,4 0,-2.15468 3.84532,-1.84532 L 65,972.51688 Z"
       id="path13815"
       inkscape:connector-curvature="0"
       sodipodi:nodetypes="ccccccc" />
  </g>
</svg>
