<?xml version="1.0" encoding="UTF-8" standalone="no"?>
<!-- Created with Inkscape (http://www.inkscape.org/) -->

<svg
   xmlns:dc="http://purl.org/dc/elements/1.1/"
   xmlns:cc="http://creativecommons.org/ns#"
   xmlns:rdf="http://www.w3.org/1999/02/22-rdf-syntax-ns#"
   xmlns:svg="http://www.w3.org/2000/svg"
   xmlns="http://www.w3.org/2000/svg"
   xmlns:sodipodi="http://sodipodi.sourceforge.net/DTD/sodipodi-0.dtd"
   xmlns:inkscape="http://www.inkscape.org/namespaces/inkscape"
   width="24"
   height="24"
   viewBox="0 0 24 24"
   id="svg4877"
   version="1.1"
   inkscape:version="0.91 r13725"
   sodipodi:docname="stitch.svg">
  <defs
     id="defs4879">
    <filter
       inkscape:collect="always"
       style="color-interpolation-filters:sRGB"
       id="filter8151"
       x="-0.06"
       width="1.12"
       y="-0.06"
       height="1.12">
      <feGaussianBlur
         inkscape:collect="always"
         stdDeviation="1"
         id="feGaussianBlur8153" />
    </filter>
    <clipPath
       clipPathUnits="userSpaceOnUse"
       id="clipPath8159">
      <path
         style="color:#000000;font-style:normal;font-variant:normal;font-weight:normal;font-stretch:normal;font-size:medium;line-height:normal;font-family:sans-serif;text-indent:0;text-align:start;text-decoration:none;text-decoration-line:none;text-decoration-style:solid;text-decoration-color:#000000;letter-spacing:normal;word-spacing:normal;text-transform:none;direction:ltr;block-progression:tb;writing-mode:lr-tb;baseline-shift:baseline;text-anchor:start;white-space:normal;clip-rule:nonzero;display:inline;overflow:visible;visibility:visible;opacity:1;isolation:auto;mix-blend-mode:normal;color-interpolation:sRGB;color-interpolation-filters:linearRGB;solid-color:#000000;solid-opacity:1;fill:#ff0000;fill-opacity:1;fill-rule:nonzero;stroke:none;stroke-width:8;stroke-linecap:round;stroke-linejoin:round;stroke-miterlimit:4;stroke-dasharray:none;stroke-dashoffset:0;stroke-opacity:1;color-rendering:auto;image-rendering:auto;shape-rendering:auto;text-rendering:auto;enable-background:accumulate"
         d="m 3.8554688,1028.3164 a 4.0004,4.0004 0 0 0 -3.12695318,6.3477 c 2.18769138,3.1109 5.40035988,5.8736 8.52734378,8.6601 3.1269836,2.7865 6.1693646,5.5761 7.5273436,7.4141 a 4.0004,4.0004 0 1 0 6.433594,-4.7539 c -2.267021,-3.0683 -5.521515,-5.8568 -8.636719,-8.6328 -3.115204,-2.776 -6.090035,-5.5582 -7.3085936,-7.2911 a 4.0004,4.0004 0 0 0 -3.4160156,-1.7441 z"
         id="path8161"
         inkscape:connector-curvature="0" />
    </clipPath>
    <filter
       inkscape:collect="always"
       style="color-interpolation-filters:sRGB"
       id="filter8184"
       x="-0.048"
       width="1.096"
       y="-0.048"
       height="1.096">
      <feGaussianBlur
         inkscape:collect="always"
         stdDeviation="0.8"
         id="feGaussianBlur8186" />
    </filter>
    <clipPath
       clipPathUnits="userSpaceOnUse"
       id="clipPath8190">
      <path
         inkscape:connector-curvature="0"
         id="path8192"
         d="m 24.057249,1032.2182 a 4.0004,4.0004 0 0 0 -6.3477,-3.127 c -3.1109,2.1877 -5.8736,5.4004 -8.6600996,8.5274 -2.7865,3.127 -5.5761,6.1694 -7.4141,7.5273 a 4.0004,4.0004 0 1 0 4.7539,6.4336 c 3.0683,-2.267 5.8567996,-5.5215 8.6327996,-8.6367 2.776,-3.1152 5.5582,-6.09 7.2911,-7.3086 a 4.0004,4.0004 0 0 0 1.7441,-3.416 z"
         style="color:#000000;font-style:normal;font-variant:normal;font-weight:normal;font-stretch:normal;font-size:medium;line-height:normal;font-family:sans-serif;text-indent:0;text-align:start;text-decoration:none;text-decoration-line:none;text-decoration-style:solid;text-decoration-color:#000000;letter-spacing:normal;word-spacing:normal;text-transform:none;direction:ltr;block-progression:tb;writing-mode:lr-tb;baseline-shift:baseline;text-anchor:start;white-space:normal;clip-rule:nonzero;display:inline;overflow:visible;visibility:visible;opacity:1;isolation:auto;mix-blend-mode:normal;color-interpolation:sRGB;color-interpolation-filters:linearRGB;solid-color:#000000;solid-opacity:1;fill:#ff0000;fill-opacity:1;fill-rule:nonzero;stroke:none;stroke-width:8;stroke-linecap:round;stroke-linejoin:round;stroke-miterlimit:4;stroke-dasharray:none;stroke-dashoffset:0;stroke-opacity:1;color-rendering:auto;image-rendering:auto;shape-rendering:auto;text-rendering:auto;enable-background:accumulate" />
    </clipPath>
  </defs>
  <sodipodi:namedview
     id="base"
     pagecolor="#ffffff"
     bordercolor="#666666"
     borderopacity="1.0"
     inkscape:pageopacity="0"
     inkscape:pageshadow="2"
     inkscape:zoom="16"
     inkscape:cx="14.702789"
     inkscape:cy="6.8427142"
     inkscape:document-units="px"
     inkscape:current-layer="layer1"
     showgrid="true"
     units="px"
     inkscape:window-width="1920"
     inkscape:window-height="1181"
     inkscape:window-x="0"
     inkscape:window-y="19"
     inkscape:window-maximized="0"
     inkscape:snap-bbox="true"
     inkscape:snap-page="true"
     inkscape:bbox-nodes="true"
     inkscape:object-nodes="true"
     inkscape:snap-smooth-nodes="true"
     inkscape:snap-global="true">
    <inkscape:grid
       type="xygrid"
       id="grid4885"
       spacingx="0.99999998"
       spacingy="0.99999998"
       empspacing="8" />
  </sodipodi:namedview>
  <metadata
     id="metadata4882">
    <rdf:RDF>
      <cc:Work
         rdf:about="">
        <dc:format>image/svg+xml</dc:format>
        <dc:type
           rdf:resource="http://purl.org/dc/dcmitype/StillImage" />
        <dc:title></dc:title>
      </cc:Work>
    </rdf:RDF>
  </metadata>
  <g
     inkscape:label="Layer 1"
     inkscape:groupmode="layer"
     id="layer1"
     transform="translate(0,-1028.3622)">
    <path
       style="color:#000000;font-style:normal;font-variant:normal;font-weight:normal;font-stretch:normal;font-size:medium;line-height:normal;font-family:sans-serif;text-indent:0;text-align:start;text-decoration:none;text-decoration-line:none;text-decoration-style:solid;text-decoration-color:#000000;letter-spacing:normal;word-spacing:normal;text-transform:none;direction:ltr;block-progression:tb;writing-mode:lr-tb;baseline-shift:baseline;text-anchor:start;white-space:normal;clip-rule:nonzero;display:inline;overflow:visible;visibility:visible;opacity:1;isolation:auto;mix-blend-mode:normal;color-interpolation:sRGB;color-interpolation-filters:linearRGB;solid-color:#000000;solid-opacity:1;fill:#ffffff;fill-opacity:1;fill-rule:nonzero;stroke:none;stroke-width:8;stroke-linecap:round;stroke-linejoin:round;stroke-miterlimit:4;stroke-dasharray:none;stroke-dashoffset:0;stroke-opacity:1;color-rendering:auto;image-rendering:auto;shape-rendering:auto;text-rendering:auto;enable-background:accumulate"
       d="m 24.057249,1032.2182 a 4.0004,4.0004 0 0 0 -6.3477,-3.127 c -3.1109,2.1877 -5.8736,5.4004 -8.6601,8.5274 -2.7864996,3.127 -5.5760996,6.1694 -7.4140996,7.5273 a 4.0004,4.0004 0 1 0 4.7539,6.4336 c 3.0682996,-2.267 5.8567996,-5.5215 8.6327996,-8.6367 2.776,-3.1152 5.5582,-6.09 7.2911,-7.3086 a 4.0004,4.0004 0 0 0 1.7441,-3.416 z"
       id="path8093"
       inkscape:connector-curvature="0" />
    <path
       style="opacity:0.5;fill:#000000;fill-opacity:1;stroke:none;stroke-width:8;stroke-linecap:round;stroke-linejoin:round;stroke-miterlimit:4;stroke-dasharray:none;stroke-opacity:1;filter:url(#filter8184)"
       d="m -10,1018.3622 0,40 40,0 0,-40 -40,0 z m 28.230469,7.9707 a 4.0004,4.0004 0 0 1 3.826172,3.8848 4.0004,4.0004 0 0 1 -1.744141,3.416 c -1.7329,1.2186 -4.515016,4.1934 -7.291016,7.3086 -2.776,3.1152 -5.5645121,6.3697 -8.6328121,8.6367 a 4.0004,4.0004 0 1 1 -4.7539063,-6.4336 c 1.838,-1.3579 4.6275625,-4.4003 7.4140625,-7.5273 2.7864999,-3.127 5.5492559,-6.3397 8.6601559,-8.5274 a 4.0004,4.0004 0 0 1 2.521485,-0.7578 z"
       id="rect8165"
       inkscape:connector-curvature="0"
       clip-path="url(#clipPath8190)" />
    <path
       inkscape:connector-curvature="0"
       id="path8120"
       d="m 3.8554688,1028.3164 a 4.0004,4.0004 0 0 0 -3.12695318,6.3477 c 2.18769138,3.1109 5.40035988,5.8736 8.52734378,8.6601 3.1269836,2.7865 6.1693646,5.5761 7.5273436,7.4141 a 4.0004,4.0004 0 1 0 6.433594,-4.7539 c -2.267021,-3.0683 -5.521515,-5.8568 -8.636719,-8.6328 -3.115204,-2.776 -6.090035,-5.5582 -7.3085936,-7.2911 a 4.0004,4.0004 0 0 0 -3.4160156,-1.7441 z"
       style="color:#000000;font-style:normal;font-variant:normal;font-weight:normal;font-stretch:normal;font-size:medium;line-height:normal;font-family:sans-serif;text-indent:0;text-align:start;text-decoration:none;text-decoration-line:none;text-decoration-style:solid;text-decoration-color:#000000;letter-spacing:normal;word-spacing:normal;text-transform:none;direction:ltr;block-progression:tb;writing-mode:lr-tb;baseline-shift:baseline;text-anchor:start;white-space:normal;clip-rule:nonzero;display:inline;overflow:visible;visibility:visible;opacity:1;isolation:auto;mix-blend-mode:normal;color-interpolation:sRGB;color-interpolation-filters:linearRGB;solid-color:#000000;solid-opacity:1;fill:#ffffff;fill-opacity:1;fill-rule:nonzero;stroke:none;stroke-width:8;stroke-linecap:round;stroke-linejoin:round;stroke-miterlimit:4;stroke-dasharray:none;stroke-dashoffset:0;stroke-opacity:1;color-rendering:auto;image-rendering:auto;shape-rendering:auto;text-rendering:auto;enable-background:accumulate" />
    <path
       inkscape:connector-curvature="0"
       id="path8194"
       d="m 3.8555978,1028.3164 a 4.0004,4.0004 0 0 0 -3.127,6.3477 c 2.1877,3.1109 5.4004,5.8736 8.5274,8.6601 3.1270002,2.7865 6.1694002,5.5761 7.5273002,7.4141 a 4.0004,4.0004 0 1 0 6.4336,-4.7539 c -2.267,-3.0683 -5.5215,-5.8568 -8.6367,-8.6328 -3.1152,-2.776 -6.0900002,-5.5582 -7.3086002,-7.2911 a 4.0004,4.0004 0 0 0 -3.416,-1.7441 z"
       style="color:#000000;font-style:normal;font-variant:normal;font-weight:normal;font-stretch:normal;font-size:medium;line-height:normal;font-family:sans-serif;text-indent:0;text-align:start;text-decoration:none;text-decoration-line:none;text-decoration-style:solid;text-decoration-color:#000000;letter-spacing:normal;word-spacing:normal;text-transform:none;direction:ltr;block-progression:tb;writing-mode:lr-tb;baseline-shift:baseline;text-anchor:start;white-space:normal;clip-rule:nonzero;display:inline;overflow:visible;visibility:visible;opacity:1;isolation:auto;mix-blend-mode:normal;color-interpolation:sRGB;color-interpolation-filters:linearRGB;solid-color:#000000;solid-opacity:1;fill:#ffffff;fill-opacity:1;fill-rule:nonzero;stroke:none;stroke-width:8;stroke-linecap:round;stroke-linejoin:round;stroke-miterlimit:4;stroke-dasharray:none;stroke-dashoffset:0;stroke-opacity:1;color-rendering:auto;image-rendering:auto;shape-rendering:auto;text-rendering:auto;enable-background:accumulate" />
    <path
       style="opacity:0.5;fill:#000000;fill-opacity:1;stroke:none;stroke-width:8;stroke-linecap:round;stroke-linejoin:round;stroke-miterlimit:4;stroke-dasharray:none;stroke-opacity:1;filter:url(#filter8151)"
       d="m -9,1019.3622 0,40 40,0 0,-40 -40,0 z m 11.8554688,7.9551 a 4.0004,4.0004 0 0 1 3.4160156,1.7441 c 1.2185586,1.7329 4.1933896,4.515 7.3085936,7.291 3.115204,2.776 6.369698,5.5645 8.636719,8.6328 a 4.0004,4.0004 0 1 1 -6.433594,4.754 c -1.357979,-1.838 -4.40036,-4.6276 -7.5273436,-7.4141 -3.1269839,-2.7865 -6.3396524,-5.5493 -8.52734378,-8.6602 a 4.0004,4.0004 0 0 1 3.12695318,-6.3476 z"
       id="rect8126"
       inkscape:connector-curvature="0"
       clip-path="url(#clipPath8159)" />
  </g>
</svg>
