<?xml version="1.0" encoding="UTF-8" standalone="no"?>
<!-- Created with Inkscape (http://www.inkscape.org/) -->

<svg
   xmlns:dc="http://purl.org/dc/elements/1.1/"
   xmlns:cc="http://creativecommons.org/ns#"
   xmlns:rdf="http://www.w3.org/1999/02/22-rdf-syntax-ns#"
   xmlns:svg="http://www.w3.org/2000/svg"
   xmlns="http://www.w3.org/2000/svg"
   xmlns:sodipodi="http://sodipodi.sourceforge.net/DTD/sodipodi-0.dtd"
   xmlns:inkscape="http://www.inkscape.org/namespaces/inkscape"
   width="24"
   height="24"
   viewBox="0 0 24 24"
   id="svg4877"
   version="1.1"
   inkscape:version="0.91 r13725"
   sodipodi:docname="weave.svg">
  <defs
     id="defs4879">
    <filter
       inkscape:collect="always"
       style="color-interpolation-filters:sRGB"
       id="filter5435"
       x="-0.047984482"
       width="1.095969"
       y="-0.048015528"
       height="1.0960311">
      <feGaussianBlur
         inkscape:collect="always"
         stdDeviation="0.52066392"
         id="feGaussianBlur5437" />
    </filter>
  </defs>
  <sodipodi:namedview
     id="base"
     pagecolor="#ffffff"
     bordercolor="#666666"
     borderopacity="1.0"
     inkscape:pageopacity="0"
     inkscape:pageshadow="2"
     inkscape:zoom="32"
     inkscape:cx="13.537005"
     inkscape:cy="11.658829"
     inkscape:document-units="px"
     inkscape:current-layer="layer1"
     showgrid="true"
     units="px"
     inkscape:window-width="1920"
     inkscape:window-height="1181"
     inkscape:window-x="0"
     inkscape:window-y="19"
     inkscape:window-maximized="0"
     inkscape:snap-bbox="true"
     inkscape:snap-page="true"
     inkscape:bbox-nodes="true"
     inkscape:object-nodes="true"
     inkscape:snap-smooth-nodes="true"
     inkscape:snap-global="true">
    <inkscape:grid
       type="xygrid"
       id="grid4885"
       spacingx="0.99999998"
       spacingy="0.99999998"
       empspacing="8" />
  </sodipodi:namedview>
  <metadata
     id="metadata4882">
    <rdf:RDF>
      <cc:Work
         rdf:about="">
        <dc:format>image/svg+xml</dc:format>
        <dc:type
           rdf:resource="http://purl.org/dc/dcmitype/StillImage" />
        <dc:title></dc:title>
      </cc:Work>
    </rdf:RDF>
  </metadata>
  <g
     inkscape:label="Layer 1"
     inkscape:groupmode="layer"
     id="layer1"
     transform="translate(0,-1028.3622)">
    <path
       style="color:#000000;font-style:normal;font-variant:normal;font-weight:normal;font-stretch:normal;font-size:medium;line-height:normal;font-family:sans-serif;text-indent:0;text-align:start;text-decoration:none;text-decoration-line:none;text-decoration-style:solid;text-decoration-color:#000000;letter-spacing:normal;word-spacing:normal;text-transform:none;direction:ltr;block-progression:tb;writing-mode:lr-tb;baseline-shift:baseline;text-anchor:start;white-space:normal;clip-rule:nonzero;display:inline;overflow:visible;visibility:visible;opacity:0.5;isolation:auto;mix-blend-mode:normal;color-interpolation:sRGB;color-interpolation-filters:linearRGB;solid-color:#000000;solid-opacity:1;fill:#000000;fill-opacity:1;fill-rule:nonzero;stroke:none;stroke-width:2;stroke-linecap:round;stroke-linejoin:round;stroke-miterlimit:4;stroke-dasharray:none;stroke-dashoffset:0;stroke-opacity:1;color-rendering:auto;image-rendering:auto;shape-rendering:auto;text-rendering:auto;enable-background:accumulate;filter:url(#filter5435)"
       d="M 13.953125 -1.0117188 A 1.0001 1.0001 0 0 0 13.013672 -0.1640625 C 12.478126 3.0491375 12.751954 7.5566406 13.001953 12.056641 C 13.018517 12.354791 13.030714 12.645769 13.046875 12.943359 C 12.678217 12.963745 12.31463 12.981435 11.945312 13.001953 C 7.445313 13.251953 2.9507881 13.477872 0.1640625 13.013672 A 1.0001 1.0001 0 1 0 -0.1640625 14.986328 C 3.0492119 15.521828 7.554687 15.2496 12.054688 15 C 12.422901 14.979544 12.783183 14.963155 13.150391 14.943359 C 13.31407 18.408183 13.377941 21.650261 13.013672 23.835938 A 1.0001 1.0001 0 1 0 14.986328 24.166016 C 15.406381 21.645758 15.326097 18.324447 15.152344 14.839844 C 18.5394 14.683036 21.693858 14.629587 23.835938 14.986328 A 1.0001 1.0001 0 1 0 24.164062 13.013672 C 22.557426 12.745872 20.627917 12.680191 18.537109 12.712891 C 17.411992 12.730649 16.237694 12.777601 15.044922 12.835938 C 15.028367 12.537663 15.014635 12.243901 14.998047 11.945312 C 14.748047 7.4453125 14.521875 2.9528156 14.986328 0.16601562 A 1.0001 1.0001 0 0 0 13.953125 -1.0117188 z "
       transform="translate(0,1028.3622)"
       id="path5390" />
    <path
       style="opacity:1;fill:none;fill-opacity:1;stroke:#e6e6e6;stroke-width:2;stroke-linecap:round;stroke-linejoin:round;stroke-miterlimit:4;stroke-dasharray:none;stroke-opacity:1"
       d="m 12,1028.3622 c -1,6 1,18 0,24"
       id="path5386"
       inkscape:connector-curvature="0"
       sodipodi:nodetypes="cc" />
    <path
       sodipodi:nodetypes="cc"
       inkscape:connector-curvature="0"
       id="path5388"
       d="m 24,1040.3622 c -6,-1 -18,1 -24,0"
       style="opacity:1;fill:none;fill-opacity:1;stroke:#e6e6e6;stroke-width:2;stroke-linecap:round;stroke-linejoin:round;stroke-miterlimit:4;stroke-dasharray:none;stroke-opacity:1" />
  </g>
</svg>
