<?xml version="1.0" encoding="UTF-8" standalone="no"?>
<!-- Created with Inkscape (http://www.inkscape.org/) -->

<svg
   xmlns:dc="http://purl.org/dc/elements/1.1/"
   xmlns:cc="http://creativecommons.org/ns#"
   xmlns:rdf="http://www.w3.org/1999/02/22-rdf-syntax-ns#"
   xmlns:svg="http://www.w3.org/2000/svg"
   xmlns="http://www.w3.org/2000/svg"
   xmlns:sodipodi="http://sodipodi.sourceforge.net/DTD/sodipodi-0.dtd"
   xmlns:inkscape="http://www.inkscape.org/namespaces/inkscape"
   width="128"
   height="384"
   viewBox="0 0 128 383.99999"
   id="svg4877"
   version="1.1"
   inkscape:version="0.91 r13725"
   sodipodi:docname="wheels_overlay.svg">
  <defs
     id="defs4879">
    <filter
       inkscape:collect="always"
       style="color-interpolation-filters:sRGB"
       id="filter13100"
       x="-0.029333333"
       width="1.0586667"
       y="-0.020307692"
       height="1.0406154">
      <feGaussianBlur
         inkscape:collect="always"
         stdDeviation="3.52"
         id="feGaussianBlur13102" />
    </filter>
  </defs>
  <sodipodi:namedview
     id="base"
     pagecolor="#ffffff"
     bordercolor="#666666"
     borderopacity="1.0"
     inkscape:pageopacity="0.0"
     inkscape:pageshadow="2"
     inkscape:zoom="1.979899"
     inkscape:cx="100.8164"
     inkscape:cy="195.16459"
     inkscape:document-units="px"
     inkscape:current-layer="layer1"
     showgrid="true"
     units="px"
     inkscape:window-width="1920"
     inkscape:window-height="1181"
     inkscape:window-x="0"
     inkscape:window-y="19"
     inkscape:window-maximized="0"
     inkscape:snap-bbox="true"
     inkscape:bbox-paths="true"
     inkscape:bbox-nodes="true"
     inkscape:snap-page="true"
     inkscape:snap-object-midpoints="true">
    <inkscape:grid
       type="xygrid"
       id="grid4885"
       spacingx="16"
       spacingy="16"
       empspacing="8" />
  </sodipodi:namedview>
  <metadata
     id="metadata4882">
    <rdf:RDF>
      <cc:Work
         rdf:about="">
        <dc:format>image/svg+xml</dc:format>
        <dc:type
           rdf:resource="http://purl.org/dc/dcmitype/StillImage" />
        <dc:title></dc:title>
      </cc:Work>
    </rdf:RDF>
  </metadata>
  <g
     inkscape:label="Layer 1"
     inkscape:groupmode="layer"
     id="layer1"
     transform="translate(0,-668.3622)">
    <path
       id="path13086"
       d="m 210,654.3622 c -79.529,0 -144,64.471 -144,144 0.02016,22.25858 5.20002,44.20947 15.132812,64.12891 C 71.238723,882.33258 66.059923,904.19075 66,926.3622 c 0,79.529 64.471,144 144,144 79.529,0 144,-64.471 144,-144 -0.0202,-22.25858 -5.20002,-44.20947 -15.13281,-64.12891 9.89409,-19.84147 15.07289,-41.69964 15.13281,-63.87109 0,-79.529 -64.471,-144 -144,-144 z m -112,120 a 24,24 0 0 1 24,24 24,24 0 0 1 -24,24 24,24 0 0 1 -24,-24 24,24 0 0 1 24,-24 z m 0,128 a 24,24 0 0 1 24,24 24,24 0 0 1 -24,24 24,24 0 0 1 -24,-24 24,24 0 0 1 24,-24 z"
       style="opacity:1;fill:#000000;fill-opacity:1;stroke:none;stroke-width:2;stroke-linecap:square;stroke-linejoin:miter;stroke-miterlimit:4;stroke-dasharray:none;stroke-opacity:1;filter:url(#filter13100)"
       inkscape:connector-curvature="0" />
    <path
       style="opacity:1;fill:#241f1c;fill-opacity:1;stroke:#483e37;stroke-width:2;stroke-linecap:square;stroke-linejoin:miter;stroke-miterlimit:4;stroke-dasharray:none;stroke-opacity:1"
       d="M 208 -16 C 128.471 -16 64 48.470996 64 128 C 64.02016 150.25858 69.20002 172.20947 79.132812 192.12891 C 69.238723 211.97038 64.059923 233.82855 64 256 C 64 335.529 128.471 400 208 400 C 287.529 400 352 335.529 352 256 C 351.9798 233.74142 346.79998 211.79053 336.86719 191.87109 C 346.76128 172.02962 351.94008 150.17145 352 128 C 352 48.470996 287.529 -16 208 -16 z M 96 104 A 24 24 0 0 1 120 128 A 24 24 0 0 1 96 152 A 24 24 0 0 1 72 128 A 24 24 0 0 1 96 104 z M 96 232 A 24 24 0 0 1 120 256 A 24 24 0 0 1 96 280 A 24 24 0 0 1 72 256 A 24 24 0 0 1 96 232 z "
       transform="translate(0,668.3622)"
       id="path11813" />
  </g>
</svg>
